<svg width="22" height="19" viewBox="0 0 22 19" fill="none" xmlns="http://www.w3.org/2000/svg">
<path d="M20.0344 4.15165C17.9255 2.93429 15.2289 3.65767 14.0102 5.76657L10.9382 11.0883C10.0493 12.625 11.1937 13.162 12.4697 13.927L15.4257 15.6332C16.4267 16.2106 17.7053 15.8678 18.2827 14.8681L21.4407 9.39908C22.5017 7.56131 21.8721 5.21263 20.0344 4.15165Z" fill="#EA4335"/>
<path d="M16.5582 6.35466L13.6022 4.64855C11.9704 3.7427 11.0463 3.68274 10.3763 4.74761L6.0166 12.2981C4.79925 14.4057 5.52392 17.1011 7.63145 18.3159C9.46918 19.3768 11.8179 18.7473 12.8788 16.9095L17.322 9.21299C17.9019 8.21201 17.5592 6.93208 16.5582 6.35466Z" fill="#FBBC04"/>
<path d="M17.1274 2.47306L15.0511 1.27395C12.7546 -0.0516 9.81813 0.734342 8.49261 3.03091L4.5395 9.87759C3.9556 10.8877 4.30229 12.1807 5.31241 12.7633L7.63762 14.1058C8.78585 14.7692 10.2534 14.3756 10.9169 13.2273L15.433 5.4057C16.3688 3.78557 18.4399 3.23033 20.0599 4.16616L17.1274 2.47306Z" fill="#34A853"/>
<path d="M9.05533 4.99037L6.81095 3.69741C5.80995 3.12132 4.53137 3.4628 3.95398 4.4612L1.26124 9.11431C-0.0642833 11.4043 0.721645 14.3344 3.01817 15.656L4.72688 16.64L6.79921 17.8339L7.69854 18.3514C6.10192 17.2826 5.59491 15.1412 6.57112 13.4546L7.26841 12.2502L9.82171 7.83827C10.3978 6.8425 10.055 5.56646 9.05533 4.99037Z" fill="#4285F4"/>
</svg>
