<svg width="40" height="39" viewBox="0 0 40 39" fill="none" xmlns="http://www.w3.org/2000/svg">
<circle cx="20" cy="19.4" r="19.2" fill="#0153AB"/>
<mask id="mask0_356_5605" style="mask-type:alpha" maskUnits="userSpaceOnUse" x="8" y="7" width="24" height="24">
<rect x="8.47925" y="7.88116" width="23.04" height="23.04" fill="#D9D9D9"/>
</mask>
<g mask="url(#mask0_356_5605)">
<path d="M25.7834 29.0012C24.4394 29.0012 23.2994 28.5372 22.3634 27.6092C21.4274 26.6812 20.9594 25.5452 20.9594 24.2012C20.9594 22.8572 21.4274 21.7212 22.3634 20.7932C23.2994 19.8652 24.4394 19.4012 25.7834 19.4012C27.1114 19.4012 28.2394 19.8692 29.1674 20.8052C30.0954 21.7412 30.5594 22.8732 30.5594 24.2012C30.5594 25.5292 30.0954 26.6612 29.1674 27.5972C28.2394 28.5332 27.1114 29.0012 25.7834 29.0012ZM12.3194 25.1612V17.4812V17.7932V13.6412V25.1612ZM12.3194 15.5612H27.6794V13.6412H12.3194V15.5612ZM12.3194 27.0812C11.7914 27.0812 11.3394 26.8932 10.9634 26.5172C10.5874 26.1412 10.3994 25.6892 10.3994 25.1612V13.6412C10.3994 13.1132 10.5874 12.6612 10.9634 12.2852C11.3394 11.9092 11.7914 11.7212 12.3194 11.7212H27.6794C28.2074 11.7212 28.6594 11.9092 29.0354 12.2852C29.4114 12.6612 29.5994 13.1132 29.5994 13.6412V17.4332C29.5994 17.7212 29.4754 17.9332 29.2274 18.0692C28.9794 18.2052 28.7194 18.2092 28.4474 18.0812C28.0314 17.8892 27.5874 17.7412 27.1154 17.6372C26.6434 17.5332 26.1594 17.4812 25.6634 17.4812C24.7514 17.4812 23.8914 17.6532 23.0834 17.9972C22.2754 18.3412 21.5674 18.8092 20.9594 19.4012H12.3194V25.1612H18.6314C18.9034 25.1612 19.1314 25.2532 19.3154 25.4372C19.4994 25.6212 19.5914 25.8492 19.5914 26.1212C19.5914 26.3932 19.4994 26.6212 19.3154 26.8052C19.1314 26.9892 18.9034 27.0812 18.6314 27.0812H12.3194ZM26.2394 24.0092V21.8012C26.2394 21.6732 26.1914 21.5612 26.0954 21.4652C25.9994 21.3692 25.8874 21.3212 25.7594 21.3212C25.6314 21.3212 25.5194 21.3692 25.4234 21.4652C25.3274 21.5612 25.2794 21.6732 25.2794 21.8012V23.9852C25.2794 24.1132 25.3034 24.2372 25.3514 24.3572C25.3994 24.4772 25.4714 24.5852 25.5674 24.6812L27.0314 26.1452C27.1274 26.2412 27.2394 26.2892 27.3674 26.2892C27.4954 26.2892 27.6074 26.2412 27.7034 26.1452C27.7994 26.0492 27.8474 25.9372 27.8474 25.8092C27.8474 25.6812 27.7994 25.5692 27.7034 25.4732L26.2394 24.0092Z" fill="white"/>
</g>
</svg>
