<svg width="65" height="65" viewBox="0 0 65 65" fill="none" xmlns="http://www.w3.org/2000/svg">
<path d="M54.7085 9.67919C48.6756 3.62671 40.6316 0.307617 32.0996 0.307617C23.5481 0.307617 15.5041 3.62671 9.47118 9.67919C3.41871 15.7121 0.0996094 23.7561 0.0996094 32.3076C0.0996094 40.8592 3.41871 48.8836 9.47118 54.936C15.5041 60.969 23.5481 64.3076 32.0996 64.3076C40.6512 64.3076 48.6756 60.9885 54.728 54.936C60.761 48.9031 64.0996 40.8592 64.0996 32.3076C64.0801 23.7561 60.761 15.7121 54.7085 9.67919Z" fill="#3CAF47"/>
<path d="M27.902 38.1063L21.6152 31.8195C20.4047 30.6091 18.4133 30.6091 17.2028 31.8195C15.9923 33.03 15.9923 35.0215 17.2028 36.232L25.6958 44.725C26.9063 45.9355 28.8977 45.9355 30.1082 44.725L47.7775 27.0557C48.988 25.8452 48.988 23.8537 47.7775 22.6432C46.567 21.4327 44.5756 21.4327 43.3651 22.6432L27.902 38.1063Z" fill="white"/>
</svg>
