<svg width="22" height="18" viewBox="0 0 22 18" fill="none" xmlns="http://www.w3.org/2000/svg">
<path d="M16.7217 15.1225L17.465 15.6584L17.1677 16.4623L17.0004 15.935L17.4186 15.6584H16.8982L16.7217 15.1225ZM15.5741 17.3872L16.0062 16.0733L14.8633 15.3127H16.2757L16.7217 13.9297L17.1677 15.3127H18.5801L17.4372 16.0733L17.8692 17.3872L16.7217 16.5747L15.5741 17.3872Z" fill="#C02A00"/>
<path d="M17.3408 3.59616L18.0842 4.13207L17.7868 4.93594L17.6196 4.40867L18.0377 4.13207H17.5174L17.3408 3.59616ZM16.1933 5.86082L16.6253 4.54697L15.4824 3.78632H16.8948L17.3408 2.40332L17.7868 3.78632H19.1992L18.0563 4.54697L18.4884 5.86082L17.3408 5.04831L16.1933 5.86082Z" fill="#C02A00"/>
<path d="M19.8193 9.35934L20.5627 9.89525L20.2654 10.6991L20.0981 10.1719L20.5162 9.89525H19.9959L19.8193 9.35934ZM18.6718 11.624L19.1039 10.3102L17.9609 9.5495H19.3733L19.8193 8.1665L20.2654 9.5495H21.6777L20.5348 10.3102L20.9669 11.624L19.8193 10.8115L18.6718 11.624Z" fill="#C02A00"/>
<path d="M11.1455 1.29049L11.8889 1.82641L11.5915 2.63027L11.4243 2.10301L11.8424 1.82641H11.3221L11.1455 1.29049ZM9.99795 3.55515L10.43 2.24131L9.28711 1.48066H10.6995L11.1455 0.0976562L11.5915 1.48066H13.0039L11.861 2.24131L12.2931 3.55515L11.1455 2.74264L9.99795 3.55515Z" fill="#C02A00"/>
<path d="M4.9502 3.59616L5.69356 4.13207L5.39622 4.93594L5.22896 4.40867L5.6471 4.13207H5.12675L4.9502 3.59616ZM3.80264 5.86082L4.23471 4.54697L3.0918 3.78632H4.50418L4.9502 2.40332L5.39622 3.78632H6.8086L5.66568 4.54697L6.09776 5.86082L4.9502 5.04831L3.80264 5.86082Z" fill="#C02A00"/>
<path d="M2.47168 9.35934L3.21504 9.89525L2.9177 10.6991L2.75044 10.1719L3.16858 9.89525H2.64823L2.47168 9.35934ZM1.32412 11.624L1.7562 10.3102L0.613281 9.5495H2.02567L2.47168 8.1665L2.9177 9.5495H4.33009L3.18717 10.3102L3.61925 11.624L2.47168 10.8115L1.32412 11.624Z" fill="#C02A00"/>
<path d="M5.56934 15.1225L6.3127 15.6584L6.01536 16.4623L5.8481 15.935L6.26624 15.6584H5.74589L5.56934 15.1225ZM4.42178 17.3872L4.85385 16.0733L3.71094 15.3127H5.12332L5.56934 13.9297L6.01536 15.3127H7.42774L6.28482 16.0733L6.7169 17.3872L5.56934 16.5747L4.42178 17.3872Z" fill="#C02A00"/>
<rect x="6.86914" y="7.0459" width="5.77369" height="5.77369" fill="#C02A00"/>
</svg>
