<svg width="21" height="18" viewBox="0 0 21 18" fill="none" xmlns="http://www.w3.org/2000/svg">
<path d="M15.4533 15.1709L16.1461 15.7078L15.869 16.5132L15.7131 15.985L16.1028 15.7078H15.6178L15.4533 15.1709ZM14.3837 17.4399L14.7864 16.1235L13.7212 15.3614H15.0376L15.4533 13.9757L15.869 15.3614H17.1854L16.1202 16.1235L16.5229 17.4399L15.4533 16.6258L14.3837 17.4399Z" fill="#0153AB"/>
<path d="M16.0307 3.62203L16.7235 4.15899L16.4464 4.96442L16.2905 4.43612L16.6802 4.15899H16.1952L16.0307 3.62203ZM14.9611 5.89109L15.3638 4.57469L14.2986 3.81257H15.615L16.0307 2.42688L16.4464 3.81257H17.7628L16.6976 4.57469L17.1003 5.89109L16.0307 5.077L14.9611 5.89109Z" fill="#0153AB"/>
<path d="M18.3405 9.39645L19.0333 9.9334L18.7562 10.7388L18.6003 10.2105L18.99 9.9334H18.5051L18.3405 9.39645ZM17.2709 11.6655L17.6736 10.3491L16.6084 9.58698H17.9248L18.3405 8.20129L18.7562 9.58698H20.0726L19.0074 10.3491L19.4101 11.6655L18.3405 10.8514L17.2709 11.6655Z" fill="#0153AB"/>
<path d="M10.256 1.31198L10.9489 1.84893L10.6717 2.65436L10.5158 2.12607L10.9056 1.84893H10.4206L10.256 1.31198ZM9.18646 3.58103L9.58917 2.26463L8.52393 1.50251H9.84033L10.256 0.116821L10.6717 1.50251H11.9881L10.9229 2.26463L11.3256 3.58103L10.256 2.76694L9.18646 3.58103Z" fill="#0153AB"/>
<path d="M4.48162 3.62203L5.17446 4.15899L4.89732 4.96442L4.74143 4.43612L5.13116 4.15899H4.64617L4.48162 3.62203ZM3.41204 5.89109L3.81476 4.57469L2.74951 3.81257H4.06591L4.48162 2.42688L4.89732 3.81257H6.21373L5.14848 4.57469L5.55119 5.89109L4.48162 5.077L3.41204 5.89109Z" fill="#0153AB"/>
<path d="M2.17156 9.39645L2.8644 9.9334L2.58727 10.7388L2.43138 10.2105L2.8211 9.9334H2.33611L2.17156 9.39645ZM1.10198 11.6655L1.5047 10.3491L0.439453 9.58698H1.75585L2.17156 8.20129L2.58727 9.58698H3.90367L2.83842 10.3491L3.24114 11.6655L2.17156 10.8514L1.10198 11.6655Z" fill="#0153AB"/>
<path d="M5.05901 15.1709L5.75185 15.7078L5.47472 16.5132L5.31883 15.985L5.70855 15.7078H5.22356L5.05901 15.1709ZM3.98944 17.4399L4.39215 16.1235L3.3269 15.3614H4.64331L5.05901 13.9757L5.47472 15.3614H6.79112L5.72587 16.1235L6.12859 17.4399L5.05901 16.6258L3.98944 17.4399Z" fill="#0153AB"/>
<rect x="7.3689" y="7.04602" width="5.77369" height="5.77369" fill="#0153AB"/>
</svg>
