<svg width="72" height="72" viewBox="0 0 72 72" fill="none" xmlns="http://www.w3.org/2000/svg">
<mask id="mask0_177_29163" style="mask-type:alpha" maskUnits="userSpaceOnUse" x="0" y="0" width="72" height="72">
<rect width="72" height="72" fill="#D9D9D9"/>
</mask>
<g mask="url(#mask0_177_29163)">
<path d="M36 19.05L27.525 10.65L31.725 6.375L36 10.65L46.65 0L50.85 4.2L36 19.05ZM12 72C11.15 72 10.4375 71.7125 9.8625 71.1375C9.2875 70.5625 9 69.85 9 69V45L15.3 27C15.6 26.1 16.1375 25.375 16.9125 24.825C17.6875 24.275 18.55 24 19.5 24H52.5C53.45 24 54.3125 24.275 55.0875 24.825C55.8625 25.375 56.4 26.1 56.7 27L63 45V69C63 69.85 62.7125 70.5625 62.1375 71.1375C61.5625 71.7125 60.85 72 60 72H57C56.15 72 55.4375 71.7125 54.8625 71.1375C54.2875 70.5625 54 69.85 54 69V66H18V69C18 69.85 17.7125 70.5625 17.1375 71.1375C16.5625 71.7125 15.85 72 15 72H12ZM17.4 39H54.6L51.45 30H20.55L17.4 39ZM22.5 57C23.75 57 24.8125 56.5625 25.6875 55.6875C26.5625 54.8125 27 53.75 27 52.5C27 51.25 26.5625 50.1875 25.6875 49.3125C24.8125 48.4375 23.75 48 22.5 48C21.25 48 20.1875 48.4375 19.3125 49.3125C18.4375 50.1875 18 51.25 18 52.5C18 53.75 18.4375 54.8125 19.3125 55.6875C20.1875 56.5625 21.25 57 22.5 57ZM49.5 57C50.75 57 51.8125 56.5625 52.6875 55.6875C53.5625 54.8125 54 53.75 54 52.5C54 51.25 53.5625 50.1875 52.6875 49.3125C51.8125 48.4375 50.75 48 49.5 48C48.25 48 47.1875 48.4375 46.3125 49.3125C45.4375 50.1875 45 51.25 45 52.5C45 53.75 45.4375 54.8125 46.3125 55.6875C47.1875 56.5625 48.25 57 49.5 57ZM15 60H57V45H15V60Z" fill="#0153AB"/>
</g>
</svg>
