<svg width="119" height="21" viewBox="0 0 119 21" fill="none" xmlns="http://www.w3.org/2000/svg">
<g clip-path="url(#clip0_203_30138)">
<path d="M0.44043 0.676701H118.357V20.3279H0.44043V0.676701Z" fill="white"/>
<path d="M20.0938 0.676701H118.357V20.3279H20.0938V0.676701Z" fill="#0B396B"/>
<path d="M36.6631 15.1511V5.85308H39.7221V8.99111H42.5884V5.85308H45.6523V15.1511H42.5884V11.5436H39.7221V15.1511H36.6631Z" fill="white"/>
<path d="M28.7061 8.16337H29.4993C30.0701 8.16337 30.4877 8.22265 30.7546 8.34126C30.9522 8.42774 31.1128 8.55625 31.2537 8.74898C31.3822 8.93924 31.4859 9.17897 31.5625 9.48042C31.6317 9.7794 31.6688 10.0956 31.6688 10.4292C31.6688 10.9728 31.5946 11.4275 31.434 11.7956C31.2784 12.1638 31.0535 12.4281 30.7644 12.5912C30.4753 12.7568 30.0454 12.8358 29.4771 12.8358L28.7061 12.8408V8.16337ZM29.8872 15.1511C30.6087 15.1511 31.2068 15.0918 31.696 14.9609C32.1877 14.8349 32.588 14.6668 32.8944 14.4667C33.2057 14.2616 33.4874 13.9849 33.7468 13.6414C34.0038 13.2856 34.2286 12.8384 34.4041 12.2898C34.5844 11.7438 34.6709 11.1285 34.6709 10.4317C34.6709 9.40871 34.4758 8.54389 34.0804 7.82239C33.6801 7.1157 33.1365 6.60425 32.4422 6.3028C31.7504 6.00135 30.925 5.85308 29.9663 5.85308H25.7139V15.1511H29.8872Z" fill="white"/>
<path d="M47.5391 15.1511V5.85308H54.7937V8.1461H50.5585V9.63606H53.9461V11.8673H50.5585V15.1511H47.5391Z" fill="white"/>
<path d="M65.0373 9.40936H62.1488C62.0944 8.9473 61.9264 8.58165 61.6472 8.31974C61.3655 8.06276 61.0121 7.93675 60.5772 7.93675C60.0361 7.93675 59.5963 8.14675 59.2578 8.56187C58.9168 8.98192 58.7463 9.66142 58.7463 10.5954C58.7463 11.2477 58.8229 11.7369 58.9638 12.0705C59.1096 12.414 59.3146 12.6611 59.5691 12.8266C59.8311 12.9922 60.1498 13.0688 60.5427 13.0688C61.0122 13.0688 61.3878 12.9502 61.662 12.6784C61.9437 12.4239 62.1068 12.0434 62.1612 11.5344H65.1015C65.0373 12.1126 64.9211 12.5969 64.7531 12.9922C64.5925 13.3851 64.3059 13.7754 63.918 14.1683C63.5251 14.5661 63.0556 14.8725 62.5145 15.085C61.9734 15.3 61.3482 15.4014 60.6316 15.4014C59.9249 15.4014 59.2653 15.3001 58.6698 15.0925C58.0669 14.88 57.5578 14.5785 57.1526 14.2004C56.7399 13.8076 56.4188 13.3678 56.189 12.8711C55.8579 12.1718 55.7021 11.4034 55.7021 10.546C55.7021 9.82947 55.8183 9.14992 56.053 8.52725C56.2878 7.90953 56.6115 7.3832 57.0241 6.9582C57.4392 6.53567 57.8914 6.21945 58.3954 6.00695C59.0329 5.73515 59.7347 5.60421 60.5131 5.60421C61.1901 5.60421 61.8177 5.70297 62.4107 5.90312C63.0012 6.10326 63.4856 6.39487 63.8636 6.78281C64.2466 7.17074 64.5406 7.61548 64.7457 8.12202C64.894 8.47536 64.9879 8.90282 65.0373 9.40936Z" fill="white"/>
<path d="M74.8346 7.94598C75.267 7.94598 75.5462 7.96571 75.6845 8.00525C75.8624 8.05714 76.0107 8.15844 76.1169 8.29186C76.2256 8.43024 76.2825 8.59088 76.2825 8.7762C76.2825 9.01341 76.1886 9.20857 76.0083 9.35683C75.8155 9.5125 75.4869 9.58418 75.0149 9.58418H73.8635V7.94598H74.8346ZM75.603 15.1511C76.327 15.1511 76.836 15.1165 77.135 15.0523C77.429 14.9831 77.7329 14.8744 78.0418 14.7311C78.3433 14.573 78.5755 14.4247 78.7287 14.2616C78.9659 14.0417 79.1413 13.7748 79.2698 13.4536C79.3983 13.1299 79.4625 12.7642 79.4625 12.3713C79.4625 11.8104 79.3242 11.3484 79.0425 10.9728C78.7608 10.5947 78.3827 10.3452 77.9058 10.2093C78.7138 9.70029 79.1166 9.04305 79.1166 8.24247C79.1166 7.41472 78.7608 6.78213 78.0566 6.35219C77.513 6.02109 76.6655 5.85308 75.5165 5.85308H70.9033V15.1511H75.603ZM75.1113 11.257C75.7167 11.257 76.1096 11.3311 76.3072 11.4868C76.4901 11.6375 76.5889 11.845 76.5889 12.1242C76.5889 12.4059 76.49 12.6283 76.2899 12.784C76.0996 12.9495 75.7018 13.0187 75.1113 13.0187H73.8635V11.257H75.1113Z" fill="white"/>
<path d="M86.1806 12.0255H84.236L85.1947 8.64273L86.1806 12.0255ZM83.3218 15.1511L83.6752 13.9305H86.7193L87.0751 15.1511H90.1168L86.7811 5.85308H83.6752L80.3369 15.1511H83.3218Z" fill="white"/>
<path d="M91.4014 15.1511V5.85308H94.2504L97.465 10.832V5.85308H100.396V15.1511H97.4848L94.3393 10.2958V15.1511H91.4014Z" fill="white"/>
<path d="M102.435 15.1511V5.85308H105.397V8.91947L108.162 5.85308H111.755L108.347 9.35434L112.108 15.1511H108.446L106.21 11.4472L105.397 12.2502V15.1511H102.435Z" fill="white"/>
<path d="M0.44043 0.676701H20.0916V20.3279H0.44043V0.676701Z" fill="white"/>
<path d="M3.87891 4.1167H16.6536V16.8914H3.87891V4.1167Z" fill="#0B396B"/>
<path d="M9.28418 0.676701H11.2485V20.3279H9.28418V0.676701Z" fill="#0B396B"/>
<path d="M0.44043 9.52273H20.0916V11.4871H0.44043V9.52273Z" fill="#0B396B"/>
<path d="M10.2665 6.33506L14.4353 10.5039L10.2665 14.6727L6.09766 10.5039L10.2665 6.33506Z" fill="white"/>
</g>
<defs>
<clipPath id="clip0_203_30138">
<rect width="118.68" height="20.5329" fill="white" transform="translate(0 0.233643)"/>
</clipPath>
</defs>
</svg>
