<svg width="26" height="24" viewBox="0 0 26 24" fill="none" xmlns="http://www.w3.org/2000/svg">
<path d="M2.36364 24C1.71364 24 1.1572 23.765 0.694318 23.295C0.231439 22.825 0 22.26 0 21.6V7.2C0 6.54 0.231439 5.975 0.694318 5.505C1.1572 5.035 1.71364 4.8 2.36364 4.8H6.08636L8.27273 2.4H15.3636V4.8H9.30682L7.15 7.2H2.36364V21.6H21.2727V10.8H23.6364V21.6C23.6364 22.26 23.4049 22.825 22.942 23.295C22.4792 23.765 21.9227 24 21.2727 24H2.36364ZM21.2727 7.2V4.8H18.9091V2.4H21.2727V0H23.6364V2.4H26V4.8H23.6364V7.2H21.2727ZM11.8182 19.8C13.2955 19.8 14.5511 19.275 15.5852 18.225C16.6193 17.175 17.1364 15.9 17.1364 14.4C17.1364 12.9 16.6193 11.625 15.5852 10.575C14.5511 9.525 13.2955 9 11.8182 9C10.3409 9 9.08523 9.525 8.05114 10.575C7.01705 11.625 6.5 12.9 6.5 14.4C6.5 15.9 7.01705 17.175 8.05114 18.225C9.08523 19.275 10.3409 19.8 11.8182 19.8ZM11.8182 17.4C10.9909 17.4 10.2917 17.11 9.72045 16.53C9.14924 15.95 8.86364 15.24 8.86364 14.4C8.86364 13.56 9.14924 12.85 9.72045 12.27C10.2917 11.69 10.9909 11.4 11.8182 11.4C12.6455 11.4 13.3447 11.69 13.9159 12.27C14.4871 12.85 14.7727 13.56 14.7727 14.4C14.7727 15.24 14.4871 15.95 13.9159 16.53C13.3447 17.11 12.6455 17.4 11.8182 17.4Z" fill="#0153AB"/>
</svg>
