<?xml version="1.0" encoding="UTF-8"?>
<svg version="1.1" xmlns="http://www.w3.org/2000/svg" width="1200" height="791">
<path d="M0 0 C1.66062469 0.23133636 1.66062469 0.23133636 3.35479736 0.46734619 C101.94761226 14.24029595 199.26371089 36.41120483 432.0625 128.0625 C433.1340332 128.58730957 434.20556641 129.11211914 435.30957031 129.65283203 C465.86777383 144.64643205 495.73326471 161.25297406 524.50732422 179.44726562 C527.15807183 181.12291498 529.81520818 182.78812628 532.47265625 184.453125 C545.55185985 192.6793014 558.36965889 201.25306969 571.0625 210.0625 C571.82401367 210.59085449 572.58552734 211.11920898 573.37011719 211.66357422 C587.23546571 221.31105521 600.95295569 231.20511635 614.25 241.625 C615.07769897 242.26646973 615.07769897 242.26646973 615.92211914 242.92089844 C619.0856402 245.40082606 622.0975251 247.98379071 625.05859375 250.703125 C625.74606689 251.31341553 626.43354004 251.92370605 627.1418457 252.55249023 C628.46499883 253.73131087 629.76406837 254.9379841 631.03198242 256.17602539 C633.71100513 258.52781224 635.74433601 260.10639626 639.41081238 259.98429871 C640.74502983 259.71979668 640.74502983 259.71979668 642.10620117 259.44995117 C643.17350464 259.24504562 644.24080811 259.04014008 645.3404541 258.82902527 C647.18286682 258.44959526 647.18286682 258.44959526 649.0625 258.0625 C650.47878086 257.78145356 651.89525475 257.50137861 653.31188965 257.22212219 C658.39367774 256.21279799 663.4681577 255.16873482 668.54296875 254.125 C670.47578112 253.72922703 672.40863857 253.33367412 674.34153748 252.93832397 C678.47632106 252.09225559 682.61084883 251.24495243 686.74517822 250.39666748 C696.77172375 248.33962043 706.79974201 246.28977102 716.82769012 244.23957443 C719.11998707 243.77089957 721.41226907 243.3021516 723.70453644 242.83333206 C738.7466711 239.75697411 753.79089254 236.69128209 768.83984375 233.6484375 C769.70210257 233.47408236 770.56436138 233.29972721 771.45274925 233.12008858 C780.14749796 231.36231706 788.84283734 229.60748558 797.53869915 227.85522938 C802.09625054 226.93672503 806.6536375 226.01740705 811.2109375 225.09765625 C812.14199625 224.90976469 813.073055 224.72187313 814.03232765 224.52828789 C830.44220228 221.21483175 846.84273778 217.85643398 863.24181116 214.49004126 C868.41845591 213.42755739 873.59547144 212.36689544 878.7727356 211.30743408 C879.50430693 211.15772423 880.23587826 211.00801438 880.98961842 210.85376787 C883.94625175 210.24877093 886.90290071 209.64385059 889.85959744 209.03916359 C898.65417081 207.24054317 907.4475188 205.43619332 916.23890531 203.62205762 C921.77259071 202.48068624 927.30768888 201.34634791 932.84391367 200.21735889 C936.07613488 199.55795581 939.30735301 198.89417494 942.53737259 198.22405815 C946.07556842 197.49047393 949.61599592 196.76881694 953.15722656 196.05004883 C954.19653635 195.83156973 955.23584614 195.61309063 956.30665016 195.38799095 C957.26170134 195.19665392 958.21675251 195.00531689 959.20074463 194.80818176 C960.02445683 194.63890576 960.84816902 194.46962976 961.69684219 194.29522419 C964.40239718 194.02906224 966.45828107 194.29488212 969.0625 195.0625 C975.27501274 203.6745547 978.34281196 217.54318008 977.0625 228.0625 C976.30098048 232.47710589 975.37883517 236.77949899 974.0625 241.0625 C973.92958054 241.76612671 973.79666107 242.46975342 973.65971375 243.19470215 C972.85403197 246.05854773 972.00030441 247.780674 970.0625 250.0625 C964.83524753 252.51689361 959.33898493 253.62820727 953.72265625 254.875 C952.01842008 255.28347703 950.31515271 255.69601431 948.61280823 256.11230469 C944.97677564 256.99765768 941.33699107 257.86441589 937.69366455 258.71923828 C929.32024472 260.6981867 921.00296799 262.89371264 912.67805862 265.06582832 C907.76380449 266.34458047 902.8451439 267.60614823 897.92675781 268.86889648 C895.88072593 269.39463955 893.83470554 269.92042741 891.78869629 270.44625854 C890.75800522 270.71111431 889.72731415 270.97597008 888.66539001 271.24885178 C883.24767347 272.64144966 877.83040171 274.03577569 872.41308594 275.42993164 C852.63537391 280.51917893 832.8564469 285.6036631 813.07482624 290.67769814 C803.69426687 293.08385428 794.31420466 295.49194173 784.93446636 297.90129662 C778.2449664 299.61940899 771.55473009 301.33461542 764.86393261 303.0476675 C760.71113108 304.11162274 756.5590211 305.17825701 752.40709496 306.24562263 C750.48654232 306.73876577 748.56570397 307.23079778 746.64455605 307.72161674 C744.01323707 308.39402701 741.38297774 309.07044117 738.75292969 309.74780273 C737.62249064 310.03512268 737.62249064 310.03512268 736.46921444 310.32824707 C731.21867674 311.68675684 726.23866843 313.33711052 721.0625 315.0625 C725.0225 321.6625 728.9825 328.2625 733.0625 335.0625 C757.47168075 328.03893584 781.80961748 320.78515527 806.1400795 313.49422073 C814.68680065 310.93365454 823.23453253 308.37646257 831.78217888 305.81898689 C833.96563838 305.1656901 836.14908588 304.51235319 838.33252144 303.85897636 C864.14536418 296.13499463 889.96943346 288.44884655 915.79566669 280.7697773 C917.48873944 280.2663361 919.18179336 279.76283156 920.87482738 279.25926018 C924.83194133 278.08230246 928.78929242 276.90616026 932.74729919 275.73220825 C939.0482233 273.86211391 945.34593845 271.98424248 951.62646484 270.04638672 C952.56930832 269.75694687 953.51215179 269.46750702 954.48356628 269.16929626 C956.12716844 268.66288817 957.76909275 268.15097545 959.40864563 267.63160706 C963.02730728 266.51817068 966.26615237 265.59175113 970.0625 266.0625 C971.7578125 267.93359375 971.7578125 267.93359375 973.1875 270.5 C973.66445312 271.32371094 974.14140625 272.14742188 974.6328125 272.99609375 C977.92763971 280.06286795 979.62578333 286.43694245 979.5625 294.25 C979.55750488 295.07226074 979.55250977 295.89452148 979.54736328 296.74169922 C979.32871389 304.49998285 977.63152526 311.10705077 974.0625 318.0625 C973.72778687 318.75251099 973.39307373 319.44252197 973.04821777 320.15344238 C968.75721146 327.8046018 962.89633452 329.89473351 954.9140625 332.6796875 C953.57255399 333.17289495 952.23204673 333.66883294 950.89247131 334.16726685 C948.01345869 335.23212747 945.12853606 336.27809447 942.23739624 337.30957031 C937.61593869 338.95850379 933.00995502 340.64796769 928.40551758 342.34375 C922.74624292 344.42500613 917.08352348 346.4963333 911.4160738 348.55522537 C900.97295705 352.34999348 890.55968508 356.22030213 880.16015625 360.1328125 C879.39224007 360.4216588 878.62432388 360.7105051 877.83313751 361.00810432 C874.75381027 362.16662107 871.67465267 363.3255866 868.59578705 364.48532963 C861.08169174 367.31563448 853.5629884 370.1335883 846.04364777 372.94992256 C842.4591241 374.29254888 838.87483352 375.63579711 835.29052734 376.97900391 C834.60037033 377.23762364 833.91021332 377.49624338 833.19914246 377.76270008 C822.70677725 381.69455659 812.21556754 385.62949492 801.72427368 389.56420898 C796.82664943 391.40101307 791.92894887 393.23761365 787.03125 395.07421875 C785.46289023 395.66235246 783.89453081 396.2504871 782.32617188 396.83862305 C781.24916016 397.24250244 780.17214844 397.64638184 779.0625 398.0625 C780.00720692 399.32459119 780.95226241 400.58642147 781.89746094 401.84814453 C782.42370056 402.5508548 782.94994019 403.25356506 783.49212646 403.97756958 C784.88387754 405.82534916 786.28879034 407.66167685 787.703125 409.4921875 C794.26472851 418.09473683 799.64643976 427.02461189 804.72509766 436.56591797 C806.15434809 439.23395648 807.6111738 441.88550705 809.07421875 444.53515625 C831.889622 485.88829875 848.74538325 528.79100185 854.0625 576.0625 C854.19398437 577.22652344 854.32546875 578.39054688 854.4609375 579.58984375 C860.25891019 644.22940416 840.07894998 707.51023986 806.4375 762.125 C805.94797852 762.920271 805.45845703 763.71554199 804.95410156 764.53491211 C803.94002071 766.14805675 802.89335032 767.74107621 801.81860352 769.31445312 C800.44749019 771.46004628 799.37462334 773.46498072 798.28881836 775.74804688 C795.71895349 780.68344379 793.16836397 785.07236383 787.62670898 786.83901978 C781.49428712 787.88387379 775.38364077 787.79540321 769.18481445 787.55810547 C765.86942276 787.43729677 762.56923861 787.43497199 759.25195312 787.44921875 C757.13270002 787.41841079 755.01353171 787.3808807 752.89453125 787.3359375 C751.91208939 787.33330902 750.92964752 787.33068054 749.91743469 787.32797241 C746.00403203 787.14000136 743.17307752 786.96903475 740.07466125 784.43988037 C738.2861654 782.38599062 736.68050471 780.25214879 735.0625 778.0625 C733.96418395 776.88085581 732.84270188 775.7202573 731.69750977 774.58398438 C731.13745743 774.02400757 730.57740509 773.46403076 730.00038147 772.88708496 C729.42404465 772.31590942 728.84770782 771.74473389 728.25390625 771.15625 C727.64232162 770.54608032 727.030737 769.93591064 726.40061951 769.30725098 C724.47778198 767.38993835 722.55146906 765.47616298 720.625 763.5625 C719.30770941 762.25023415 717.99065014 760.93773605 716.67382812 759.625 C713.4727139 756.43481494 710.26848135 753.24779349 707.0625 750.0625 C705.30415251 751.97607337 703.54643186 753.89021618 701.7890625 755.8046875 C701.2947876 756.34246826 700.8005127 756.88024902 700.29125977 757.43432617 C697.08138042 760.93237423 693.92529165 764.47026579 690.81640625 768.05859375 C687.97911579 771.30030869 685.07436217 774.48107428 682.17578125 777.66796875 C680.72662653 779.30998694 679.34027313 781.00896112 678.01171875 782.75 C674.50920503 786.90528682 670.2477027 787.85560013 665.05078125 788.34765625 C659.34447409 788.50908929 655.86666571 788.38238051 651.0625 785.0625 C651.3925 783.7425 651.7225 782.4225 652.0625 781.0625 C651.2198056 781.09786362 650.37711121 781.13322723 649.50888062 781.16966248 C641.36809266 781.51075503 633.22718806 781.8489041 625.08615685 782.18414211 C620.90584404 782.35637583 616.72557605 782.52955622 612.54541016 782.70532227 C608.47347903 782.8764953 604.40143081 783.04463281 600.32930374 783.21107674 C598.8144081 783.27345227 597.29954929 783.33673316 595.78474045 783.40118217 C565.75430885 784.67617417 535.72145494 785.22477595 505.66616106 785.22975707 C503.16246239 785.23048745 500.65876866 785.23265735 498.15507126 785.23525429 C489.27329936 785.2444199 480.39154209 785.24860193 471.50976562 785.24780273 C464.35577113 785.2472749 457.20183199 785.25423159 450.04785156 785.26831055 C388.26874358 785.38697539 326.57624159 784.37841985 264.86285782 781.37085724 C262.25869888 781.24435023 259.65443291 781.1202459 257.05014038 780.996521 C177.6052431 777.20923675 98.27922182 771.33784594 19.13448334 763.47665787 C16.14895821 763.180211 13.16323448 762.88578789 10.17752075 762.59124756 C8.14173918 762.38912833 6.10639084 762.18301532 4.07104492 761.9765625 C2.84909424 761.85555176 1.62714355 761.73454102 0.36816406 761.60986328 C-0.68691345 761.50360626 -1.74199097 761.39734924 -2.82904053 761.28787231 C-7.96917027 760.91519802 -12.70837826 760.74070355 -17.68505859 762.19238281 C-18.55061371 762.43974182 -19.41616882 762.68710083 -20.30795288 762.94195557 C-21.22468781 763.21376648 -22.14142273 763.48557739 -23.0859375 763.765625 C-24.05673248 764.04468689 -25.02752747 764.32374878 -26.02774048 764.61126709 C-29.12525629 765.50297384 -32.2190164 766.40691347 -35.3125 767.3125 C-43.1770189 769.60001932 -51.04647349 771.86793076 -58.9375 774.0625 C-59.79631775 774.30144989 -60.6551355 774.54039978 -61.53997803 774.78659058 C-63.88081642 775.42595872 -66.22680075 776.0372273 -68.578125 776.63671875 C-69.59040665 776.91464264 -69.59040665 776.91464264 -70.62313843 777.19818115 C-75.00915117 778.27009701 -77.45095355 777.9541041 -81.3125 775.625 C-85.6734085 771.76175804 -88.0233837 768.64863211 -88.4375 762.75 C-88.26479377 758.43954025 -86.98932713 755.46245828 -84.8125 751.7890625 C-80.30090672 747.63463702 -72.75776034 746.3459743 -66.91015625 744.70703125 C-65.322514 744.25397313 -63.73503835 743.80033089 -62.14770508 743.34619141 C-61.3120401 743.10781555 -60.47637512 742.8694397 -59.61538696 742.62384033 C-2.3892976 726.23880654 54.32359749 706.89975021 108.19384766 681.41894531 C111.15971397 680.01653227 114.13252671 678.62952876 117.10546875 677.2421875 C146.62565533 663.36954234 175.23825717 647.66566611 202.0625 629.0625 C202.64257812 628.66111816 203.22265625 628.25973633 203.8203125 627.84619141 C220.80835971 616.03594383 236.68551613 602.89110702 252.0625 589.0625 C239.23572873 593.85824555 226.42688995 598.7007522 213.625 603.5625 C212.02105377 604.17159714 212.02105377 604.17159714 210.38470459 604.79299927 C186.76582469 613.76659623 163.19711189 622.86882799 139.63102722 631.97994995 C127.447315 636.6892226 115.25531267 641.37685156 103.0625 646.0625 C84.88988301 653.04712604 66.72408656 660.04924404 48.5625 667.0625 C30.29618512 674.11594116 12.02636437 681.1601367 -6.25 688.1875 C-7.31529938 688.59711975 -8.38059875 689.0067395 -9.47817993 689.42877197 C-18.03042412 692.71704434 -26.58301352 696.00441844 -35.13562012 699.29174805 C-42.63224412 702.17323877 -50.12872654 705.05509743 -57.625 707.9375 C-59.22234482 708.55168793 -59.22234482 708.55168793 -60.85195923 709.17828369 C-79.24581952 716.2515507 -97.63197885 723.34467892 -116.01565552 730.44436646 C-129.10352906 735.49875805 -142.19314437 740.54851422 -155.2890625 745.58203125 C-156.45503967 746.0302121 -157.62101685 746.47839294 -158.82232666 746.94015503 C-164.32317913 749.05432207 -169.8244016 751.16751946 -175.32617188 753.27929688 C-177.32423178 754.04684108 -179.32227892 754.81441851 -181.3203125 755.58203125 C-182.27621277 755.94869904 -183.23211304 756.31536682 -184.21697998 756.69314575 C-189.29857941 758.64645054 -194.36911722 760.62460272 -199.42871094 762.63427734 C-200.48653778 763.05319748 -201.54436462 763.47211761 -202.63424683 763.9037323 C-204.66183929 764.70812154 -206.68774702 765.5167743 -208.71170044 766.33027649 C-209.61620941 766.6888121 -210.52071838 767.04734772 -211.45263672 767.41674805 C-212.6464949 767.89461006 -212.6464949 767.89461006 -213.86447144 768.38212585 C-215.9375 769.0625 -215.9375 769.0625 -218.9375 769.0625 C-218.9375 725.8325 -218.9375 682.6025 -218.9375 638.0625 C-175.53863748 623.21552072 -175.53863748 623.21552072 -162.84130859 619.12866211 C-159.38406587 618.01578325 -155.92933826 616.89516771 -152.47433472 615.77536011 C-150.59596068 615.16657667 -148.71748137 614.55811795 -146.83889771 613.94998169 C-135.87787153 610.40007813 -124.92971967 606.81089669 -113.98092651 603.22348022 C-95.61756718 597.20684718 -77.24959393 591.20474228 -58.87304688 585.22851562 C-43.38830568 580.19215932 -27.91203096 575.13013301 -12.4375 570.0625 C4.74553682 564.43536178 21.9323955 558.82034815 39.12695312 553.22851562 C54.61169432 548.19215932 70.08796904 543.13013301 85.5625 538.0625 C102.74553682 532.43536178 119.9323955 526.82034815 137.12695312 521.22851562 C152.61169432 516.19215932 168.08796904 511.13013301 183.5625 506.0625 C200.73443681 500.43899683 217.90972833 494.82615682 235.09371948 489.23959351 C246.26625377 485.60716578 257.43400248 481.96041852 268.59765625 478.30078125 C269.84408905 477.8922995 271.09052185 477.48381775 272.37472534 477.06295776 C278.52247329 475.04811201 284.66979079 473.03196983 290.81640625 471.01367188 C293.06638969 470.27599115 295.31638894 469.53835865 297.56640625 468.80078125 C298.58122574 468.46701981 299.59604523 468.13325836 300.64161682 467.78938293 C305.28192825 466.2695197 309.92856724 464.77153337 314.59350586 463.32885742 C315.38309189 463.08415207 316.17267792 462.83944672 316.9861908 462.58732605 C319.0625 462.0625 319.0625 462.0625 322.0625 462.0625 C322.0625 456.7825 322.0625 451.5025 322.0625 446.0625 C320.2165625 446.65450195 318.370625 447.24650391 316.46875 447.85644531 C283.69888758 458.36210905 250.92140629 468.83825698 218.0625 479.0625 C195.36232408 486.12603902 172.70222667 493.30758439 150.0625 500.5625 C126.77159305 508.02608677 103.45701831 515.4050497 80.10400391 522.67193604 C58.05698216 529.53313072 36.05104846 536.51625489 14.0625 543.5625 C-8.57723661 550.81741879 -31.23763037 557.9979606 -53.9375 565.0625 C-76.73862837 572.15964986 -99.50831657 579.35132856 -122.25592041 586.61828613 C-124.58642831 587.36267972 -126.91709808 588.10656452 -129.24780273 588.8503418 C-147.13304591 594.55927304 -165.01730156 600.2716211 -182.77124023 606.37988281 C-192.40208629 609.66162789 -203.31600839 612.09076757 -213.09765625 608.15625 C-216.77984792 605.96726132 -219.02768055 602.8821389 -220.9375 599.0625 C-221.03364181 597.32797327 -221.06545974 595.58972764 -221.06689453 593.85253906 C-221.07000137 592.7491066 -221.07310822 591.64567413 -221.0763092 590.50880432 C-221.07433029 589.29418015 -221.07235138 588.07955597 -221.0703125 586.828125 C-221.07167709 585.55641953 -221.07304169 584.28471405 -221.07444763 582.97447205 C-221.07727724 579.48361403 -221.0728124 575.9928011 -221.06627274 572.50194931 C-221.06249826 570.3114898 -221.0604324 568.12103459 -221.05880737 565.93057251 C-221.0399943 544.36771778 -220.85279874 522.80992313 -220.5 501.25 C-220.47066376 499.42873596 -220.47066376 499.42873596 -220.44073486 497.57067871 C-220.10160737 477.06339892 -219.5353983 456.56355292 -218.9375 436.0625 C-168.12151509 425.76747584 -117.29528282 415.52433494 -66.453125 405.359375 C-65.51125454 405.17106511 -64.56938407 404.98275522 -63.59897208 404.78873897 C-49.04532641 401.87910015 -34.49143064 398.97071301 -19.9375 396.0625 C-4.38659119 392.95506513 11.16425965 389.84734071 26.71484375 386.73828125 C27.65741838 386.54983052 28.59999301 386.3613798 29.57113051 386.16721845 C70.51774526 377.98027723 111.45298395 369.73793392 152.38046265 361.45584106 C156.12008607 360.69917041 159.85984557 359.94317907 163.59976196 359.18795776 C164.47757513 359.01068712 165.3553883 358.83341648 166.25980186 358.650774 C167.98862711 358.30165259 169.71745924 357.95256522 171.4462986 357.60351372 C176.59435894 356.5634329 181.74109629 355.51705094 186.88699055 354.46630764 C190.1822263 353.79425315 193.47822334 353.12598941 196.7743969 352.45855141 C198.29506401 352.14970201 199.81538777 351.83915622 201.33532906 351.52675438 C203.394477 351.10366644 205.45474367 350.68651603 207.51538086 350.27075195 C208.66630722 350.03596634 209.81723358 349.80118073 211.0030365 349.5592804 C213.76140404 349.11139046 216.27625432 348.96186631 219.0625 349.0625 C209.84869309 335.91133959 200.09914965 323.32934087 189.66015625 311.12890625 C187.33597258 308.40479014 185.10326416 305.61580007 182.875 302.8125 C171.25878229 288.64833816 157.98684555 275.88898569 145.0625 262.9375 C144.33490479 262.20722595 143.60730957 261.4769519 142.85766602 260.72454834 C140.74143133 258.60241603 138.62138795 256.48416717 136.5 254.3671875 C135.87017212 253.73538574 135.24034424 253.10358398 134.59143066 252.45263672 C130.24295846 248.1263139 125.71857321 244.05449104 121.0625 240.0625 C120.4600798 239.5427359 119.85765961 239.0229718 119.23698425 238.48745728 C115.78657087 235.51082445 112.31872157 232.55451322 108.85302734 229.59570312 C107.17422348 228.15816723 105.50231975 226.71303679 103.83203125 225.265625 C96.7663064 219.17342438 89.45208616 213.50550957 81.953125 207.95703125 C78.52780458 205.42145869 75.16737562 202.8154859 71.8125 200.1875 C27.3182018 165.73133777 -22.7213668 138.03601691 -73.25 113.5625 C-74.41112305 112.99917969 -75.57224609 112.43585938 -76.76855469 111.85546875 C-84.73532015 108.02849858 -92.7901891 104.483862 -100.9375 101.0625 C-102.29506878 92.1749362 -102.29506878 92.1749362 -100.8125 87.5625 C-98.62721932 84.64879243 -97.46175741 83.88209475 -93.9375 83.0625 C-87.59424746 82.20745342 -82.68754703 85.14553155 -77.125 87.8125 C-75.54416626 88.5552417 -75.54416626 88.5552417 -73.93139648 89.31298828 C-70.59475099 90.88512101 -67.26624261 92.47371544 -63.9375 94.0625 C-61.85192712 95.04504515 -59.76599704 96.02683252 -57.6796875 97.0078125 C-43.6272058 103.65042082 -29.80958621 110.69472768 -16.06274414 117.94604492 C-14.69455123 118.66479807 -13.31983366 119.37133317 -11.9375 120.0625 C-8.9675 116.1025 -5.9975 112.1425 -2.9375 108.0625 C-13.50769275 102.62650445 -24.20185244 97.62927065 -35.12866211 92.95263672 C-37.50402534 91.93577681 -39.87623311 90.91182677 -42.24804688 89.88671875 C-43.81236092 89.21321854 -45.37681271 88.54003817 -46.94140625 87.8671875 C-47.69966705 87.53982605 -48.45792786 87.2124646 -49.23916626 86.87518311 C-52.89410476 85.31023699 -56.55411053 83.81176822 -60.28857422 82.44628906 C-60.97306137 82.19130646 -61.65754852 81.93632385 -62.36277771 81.6736145 C-64.2072135 80.99417019 -66.0602474 80.33819417 -67.91381836 79.68408203 C-71.59743713 77.70857974 -72.96613212 75.70621973 -74.9375 72.0625 C-75.87142496 67.11132427 -75.69896418 62.58542836 -73.4375 58.0625 C-69.63828005 55.02312404 -65.41828826 53.24765607 -60.53979492 52.88354492 C-56.79194687 51.7010688 -56.08821273 49.73678708 -54.203125 46.34765625 C-53.71788361 45.49124794 -53.71788361 45.49124794 -53.22283936 44.61753845 C-52.19512103 42.79510419 -51.19131947 40.96068615 -50.1875 39.125 C-49.49761962 37.89302451 -48.80622922 36.66189331 -48.11328125 35.43164062 C-44.9343473 29.7957378 -44.9343473 29.7957378 -41.9375 24.0625 C-42.576875 23.0725 -43.21625 22.0825 -43.875 21.0625 C-46.56481014 16.50687086 -47.15377535 12.22562913 -45.9375 7.0625 C-35.98786164 -9.23104946 -15.81361877 -2.23251436 0 0 Z M21.0625 119.0625 C19.66728444 121.30203056 18.29687216 123.5513661 16.9375 125.8125 C16.53917969 126.44671875 16.14085937 127.0809375 15.73046875 127.734375 C14.4441578 129.8206873 14.4441578 129.8206873 13.0625 133.0625 C14.14620457 136.34847199 15.60683584 137.72010477 18.578125 139.375 C19.31949707 139.80031006 20.06086914 140.22562012 20.82470703 140.66381836 C21.64567871 141.1253833 22.46665039 141.58694824 23.3125 142.0625 C32.48826891 147.39639581 41.36860758 153.10224697 50.1875 159 C50.83479065 159.43285309 51.4820813 159.86570618 52.14898682 160.31167603 C62.62374534 167.33047458 72.95101233 174.52734185 83.0625 182.0625 C83.66771484 182.51222168 84.27292969 182.96194336 84.89648438 183.42529297 C93.56776758 189.87628886 93.56776758 189.87628886 97.2578125 192.8046875 C98.96933768 194.25309755 98.96933768 194.25309755 101.0625 194.0625 C102.49799726 192.46915761 103.86077327 190.80998918 105.1875 189.125 C109.32254419 183.95116837 113.61587136 178.9695425 118.0625 174.0625 C115.90176551 171.75035761 113.70799909 170.08025734 111.01953125 168.41796875 C110.20572998 167.91330078 109.39192871 167.40863281 108.5534668 166.88867188 C107.66957275 166.34791016 106.78567871 165.80714844 105.875 165.25 C104.9466333 164.67958984 104.0182666 164.10917969 103.06176758 163.52148438 C84.38789788 152.10267066 65.39466002 141.32448727 46.0625 131.0625 C44.98790527 130.49096191 43.91331055 129.91942383 42.80615234 129.33056641 C39.60327437 127.6306248 36.39645156 125.93844482 33.1875 124.25 C32.19999756 123.72776855 31.21249512 123.20553711 30.19506836 122.66748047 C29.28764893 122.1932666 28.38022949 121.71905273 27.4453125 121.23046875 C26.64496582 120.81047607 25.84461914 120.3904834 25.02001953 119.95776367 C23.11811991 118.92386249 23.11811991 118.92386249 21.0625 119.0625 Z M138.0625 187.0625 C136.89537232 188.85955162 135.77927638 190.68976659 134.68359375 192.53125 C134.01005859 193.65917969 133.33652344 194.78710938 132.64257812 195.94921875 C131.92830678 197.1535992 131.21411512 198.35802691 130.5 199.5625 C129.78223637 200.76712695 129.06414181 201.97155678 128.34570312 203.17578125 C126.58135865 206.13609077 124.82046434 209.0983987 123.0625 212.0625 C125.74766925 215.49595471 128.29582728 218.2125215 131.75 220.875 C138.49458328 226.27607672 144.6874293 232.21277544 150.9453125 238.1640625 C154.20986889 241.26814001 157.52350664 244.30280199 160.875 247.3125 C166.52826702 252.47110616 171.95572747 257.84693078 177.375 263.25 C178.22360596 264.09401367 179.07221191 264.93802734 179.9465332 265.80761719 C184.30309557 270.17490472 188.51261333 274.5965027 192.48730469 279.31567383 C195.09598078 282.20858726 198.04831899 284.60194407 201.0625 287.0625 C207.30746816 280.91916785 213.38553016 274.74208504 219.0625 268.0625 C220.37298589 266.56074004 221.68545788 265.06071068 223 263.5625 C223.58652344 262.8921875 224.17304688 262.221875 224.77734375 261.53125 C225.20144531 261.0465625 225.62554687 260.561875 226.0625 260.0625 C222.47287114 251.25346826 212.17226256 244.12600988 205.0625 238.0625 C203.94938515 237.08723219 202.83752396 236.11053261 201.7265625 235.1328125 C194.04141507 228.38529756 186.23076964 221.87020709 178.11914062 215.64208984 C176.63131464 214.49937449 175.14594607 213.35345716 173.66210938 212.20556641 C157.01881918 196.74216265 157.01881918 196.74216265 138.0625 187.0625 Z M245.0625 278.0625 C244.39605469 279.16464844 243.72960937 280.26679688 243.04296875 281.40234375 C236.56506845 292.07837845 229.90049676 302.61372352 223.0625 313.0625 C226.07682536 317.75705936 229.40726408 322.05946895 232.9375 326.375 C237.29726642 331.75579986 241.37352114 337.19358995 245.0625 343.0625 C254.06047101 342.3290259 262.80783934 340.3565808 271.625 338.5 C273.22192559 338.16693575 274.81893022 337.83425019 276.41601562 337.50195312 C280.29910271 336.69316852 284.18108201 335.87925547 288.0625 335.0625 C285.32525787 329.27740671 282.23538153 324.12640581 278.5 318.9375 C277.9740625 318.20104248 277.448125 317.46458496 276.90625 316.70581055 C267.24179593 303.27088677 256.96744685 289.60157378 245.0625 278.0625 Z M820.0625 534.0625 C818.57344674 535.55155326 818.65776788 537.02452597 818.3359375 539.09375 C812.21131978 576.51768698 798.28625151 610.94476887 780.0625 644.0625 C784.08998053 648.89548806 788.30629413 653.44360004 792.7734375 657.87109375 C793.38643707 658.48267838 793.99943665 659.094263 794.63101196 659.72438049 C796.56414564 661.65197559 798.50074987 663.57603928 800.4375 665.5 C801.75934699 666.81682404 803.08096372 668.13387926 804.40234375 669.45117188 C807.61974299 672.65762373 810.84025681 675.86091629 814.0625 679.0625 C816.90754913 677.63997544 817.12993851 675.57179593 818.11816406 672.69213867 C818.36791992 671.92748291 818.61767578 671.16282715 818.875 670.375 C819.13635742 669.58134033 819.39771484 668.78768066 819.66699219 667.9699707 C833.85539358 623.50868016 832.08694653 578.97869482 821.0625 534.0625 C820.7325 534.0625 820.4025 534.0625 820.0625 534.0625 Z M762.0625 674.0625 C761.70647705 674.60438965 761.3504541 675.1462793 760.98364258 675.70458984 C750.30161754 691.93006143 739.49803815 708.10979854 727.0625 723.0625 C730.0929901 728.72787435 733.68367765 733.61167848 737.6875 738.625 C743.00999692 745.37123874 748.13569937 752.21098398 753.07421875 759.2421875 C754.69962572 761.5477746 756.35458772 763.81781529 758.0625 766.0625 C774.94864688 758.87930612 790.9734824 728.77222365 799.0625 713.0625 C798.42634766 712.44375 798.42634766 712.44375 797.77734375 711.8125 C794.05794688 708.15032462 790.5511954 704.38234071 787.14453125 700.4296875 C783.99177037 696.84512259 780.73290649 693.3602469 777.48364258 689.86328125 C774.0865065 686.19847252 770.77371951 682.47848577 767.5625 678.6484375 C765.87797001 676.86739798 764.03477926 675.51190297 762.0625 674.0625 Z " fill="#B9C9D2" transform="translate(220.9375,2.9375)"/>
<path d="M0 0 C5.64830759 2.68688492 11.38403876 5.00370282 17.20703125 7.28125 C61.72174159 24.92744612 105.95326297 45.14203119 147.328125 69.29296875 C149.91102534 70.79081506 152.50878021 72.25882789 155.11328125 73.71875 C193.14469077 95.07763902 229.81966763 119.79527003 262.9296875 148.25390625 C265.83699477 150.73220375 268.79325426 153.13649796 271.76953125 155.53125 C275.4424115 158.51845507 278.84901751 161.60202027 282.12670898 165.0144043 C283.8242241 166.71098168 285.57947657 168.25788602 287.41015625 169.80859375 C292.32379967 174.08005245 296.92173278 178.65779643 301.51293945 183.26928711 C302.95478346 184.71649385 304.40190241 186.15827026 305.84960938 187.59960938 C311.07722778 192.82319922 316.11057586 198.14810904 320.89453125 203.78125 C321.74015625 204.74546875 322.58578125 205.7096875 323.45703125 206.703125 C368.9957812 259.53975154 399.10678389 322.72453186 399.33203125 393.21875 C399.33829529 394.13393402 399.34455933 395.04911804 399.35101318 395.99203491 C399.42650296 413.4205897 397.65392856 430.61124883 393.33203125 447.53125 C393.08300049 448.5116626 392.83396973 449.4920752 392.57739258 450.50219727 C379.09452673 500.9280356 344.0473819 547.22268564 302.89453125 578.78125 C301.79525701 579.67741959 300.69911703 580.57744205 299.60546875 581.48046875 C277.4102985 599.72855195 252.98943946 614.8834904 227.89453125 628.78125 C226.84652344 629.36277832 225.79851562 629.94430664 224.71875 630.54345703 C174.35078759 658.35385226 120.74449395 678.88187145 66.14701843 696.73085022 C60.95273132 698.42932223 55.76846596 700.15664443 50.5859375 701.890625 C33.41029828 707.62633679 16.08876028 712.84950389 -1.35507202 717.70666504 C-3.01327267 718.17061231 -4.6699054 718.64020288 -6.32485962 719.11560059 C-8.65887577 719.78396977 -10.99805547 720.42978784 -13.33984375 721.0703125 C-14.38361427 721.37580521 -14.38361427 721.37580521 -15.44847107 721.68746948 C-20.00197555 722.89859808 -22.81383698 722.70546974 -27.10546875 720.78125 C-30.76841163 718.4801705 -33.46272134 715.8168578 -35.10546875 711.78125 C-36.15374729 705.9108902 -34.975012 701.56110424 -31.98046875 696.5078125 C-27.46887547 692.35338702 -19.92572909 691.0647243 -14.078125 689.42578125 C-12.49048275 688.97272313 -10.9030071 688.51908089 -9.31567383 688.06494141 C-8.48000885 687.82656555 -7.64434387 687.5881897 -6.78335571 687.34259033 C50.44273365 670.95755654 107.15562874 651.61850021 161.02587891 626.13769531 C163.99174522 624.73528227 166.96455796 623.34827876 169.9375 621.9609375 C199.45768658 608.08829234 228.07028842 592.38441611 254.89453125 573.78125 C255.47460938 573.37986816 256.0546875 572.97848633 256.65234375 572.56494141 C273.64039096 560.75469383 289.51754738 547.60985702 304.89453125 533.78125 C292.06775998 538.57699555 279.2589212 543.4195022 266.45703125 548.28125 C264.85308502 548.89034714 264.85308502 548.89034714 263.21673584 549.51174927 C239.59785594 558.48534623 216.02914314 567.58757799 192.46305847 576.69869995 C180.27934625 581.4079726 168.08734392 586.09560156 155.89453125 590.78125 C137.72191426 597.76587604 119.55611781 604.76799404 101.39453125 611.78125 C83.12821637 618.83469116 64.85839562 625.8788867 46.58203125 632.90625 C45.51673187 633.31586975 44.4514325 633.7254895 43.35385132 634.14752197 C34.80160713 637.43579434 26.24901773 640.72316844 17.69641113 644.01049805 C10.19978713 646.89198877 2.70330471 649.77384743 -4.79296875 652.65625 C-6.39031357 653.27043793 -6.39031357 653.27043793 -8.01992798 653.89703369 C-26.41378827 660.9703007 -44.7999476 668.06342892 -63.18362427 675.16311646 C-76.27149781 680.21750805 -89.36111312 685.26726422 -102.45703125 690.30078125 C-103.62300842 690.7489621 -104.7889856 691.19714294 -105.99029541 691.65890503 C-111.49114788 693.77307207 -116.99237035 695.88626946 -122.49414062 697.99804688 C-124.49220053 698.76559108 -126.49024767 699.53316851 -128.48828125 700.30078125 C-129.44418152 700.66744904 -130.40008179 701.03411682 -131.38494873 701.41189575 C-136.46654816 703.36520054 -141.53708597 705.34335272 -146.59667969 707.35302734 C-147.65450653 707.77194748 -148.71233337 708.19086761 -149.80221558 708.6224823 C-151.82980804 709.42687154 -153.85571577 710.2355243 -155.87966919 711.04902649 C-156.78417816 711.4075621 -157.68868713 711.76609772 -158.62060547 712.13549805 C-159.81446365 712.61336006 -159.81446365 712.61336006 -161.03244019 713.10087585 C-163.10546875 713.78125 -163.10546875 713.78125 -166.10546875 713.78125 C-166.10546875 670.55125 -166.10546875 627.32125 -166.10546875 582.78125 C-122.70660623 567.93427072 -122.70660623 567.93427072 -110.00927734 563.84741211 C-106.55203462 562.73453325 -103.09730701 561.61391771 -99.64230347 560.49411011 C-97.76392943 559.88532667 -95.88545012 559.27686795 -94.00686646 558.66873169 C-83.04584028 555.11882813 -72.09768842 551.52964669 -61.14889526 547.94223022 C-42.78553593 541.92559718 -24.41756268 535.92349228 -6.04101562 529.94726562 C9.44372557 524.91090932 24.92000029 519.84888301 40.39453125 514.78125 C57.57756807 509.15411178 74.76442675 503.53909815 91.95898438 497.94726562 C107.44372557 492.91090932 122.92000029 487.84888301 138.39453125 482.78125 C155.57756807 477.15411178 172.76442675 471.53909815 189.95898438 465.94726562 C205.44372557 460.91090932 220.92000029 455.84888301 236.39453125 450.78125 C253.56646806 445.15774683 270.74175958 439.54490682 287.92575073 433.95834351 C299.09828502 430.32591578 310.26603373 426.67916852 321.4296875 423.01953125 C322.6761203 422.6110495 323.9225531 422.20256775 325.20675659 421.78170776 C331.35450454 419.76686201 337.50182204 417.75071983 343.6484375 415.73242188 C345.89842094 414.99474115 348.14842019 414.25710865 350.3984375 413.51953125 C351.41325699 413.18576981 352.42807648 412.85200836 353.47364807 412.50813293 C358.1139595 410.9882697 362.76059849 409.49028337 367.42553711 408.04760742 C368.21512314 407.80290207 369.00470917 407.55819672 369.81822205 407.30607605 C371.89453125 406.78125 371.89453125 406.78125 374.89453125 406.78125 C374.89453125 401.50125 374.89453125 396.22125 374.89453125 390.78125 C373.04859375 391.37325195 371.20265625 391.96525391 369.30078125 392.57519531 C336.53091883 403.08085905 303.75343754 413.55700698 270.89453125 423.78125 C248.19435533 430.84478902 225.53425792 438.02633439 202.89453125 445.28125 C179.6036243 452.74483677 156.28904956 460.1237997 132.93603516 467.39068604 C110.88901341 474.25188072 88.88307971 481.23500489 66.89453125 488.28125 C44.25479464 495.53616879 21.59440088 502.7167106 -1.10546875 509.78125 C-23.90659712 516.87839986 -46.67628532 524.07007856 -69.42388916 531.33703613 C-71.75439706 532.08142972 -74.08506683 532.82531452 -76.41577148 533.5690918 C-94.30101466 539.27802304 -112.18527031 544.9903711 -129.93920898 551.09863281 C-139.57005504 554.38037789 -150.48397714 556.80951757 -160.265625 552.875 C-163.94781667 550.68601132 -166.1956493 547.6008889 -168.10546875 543.78125 C-168.20161056 542.04672327 -168.23342849 540.30847764 -168.23486328 538.57128906 C-168.23797012 537.4678566 -168.24107697 536.36442413 -168.24427795 535.22755432 C-168.24229904 534.01293015 -168.24032013 532.79830597 -168.23828125 531.546875 C-168.23964584 530.27516953 -168.24101044 529.00346405 -168.24241638 527.69322205 C-168.24524599 524.20236403 -168.24078115 520.7115511 -168.23424149 517.22069931 C-168.23046701 515.0302398 -168.22840115 512.83978459 -168.22677612 510.64932251 C-168.20796305 489.08646778 -168.02076749 467.52867313 -167.66796875 445.96875 C-167.63863251 444.14748596 -167.63863251 444.14748596 -167.60870361 442.28942871 C-167.26957612 421.78214892 -166.70336705 401.28230292 -166.10546875 380.78125 C-115.28948384 370.48622584 -64.46325157 360.24308494 -13.62109375 350.078125 C-12.67922329 349.88981511 -11.73735282 349.70150522 -10.76694083 349.50748897 C3.78670484 346.59785015 18.34060061 343.68946301 32.89453125 340.78125 C48.44544006 337.67381513 63.9962909 334.56609071 79.546875 331.45703125 C80.48944963 331.26858052 81.43202426 331.0801298 82.40316176 330.88596845 C123.34977651 322.69902723 164.2850152 314.45668392 205.2124939 306.17459106 C208.95211732 305.41792041 212.69187682 304.66192907 216.43179321 303.90670776 C217.30960638 303.72943712 218.18741955 303.55216648 219.09183311 303.369524 C220.82065836 303.02040259 222.54949049 302.67131522 224.27832985 302.32226372 C229.42639019 301.2821829 234.57312754 300.23580094 239.7190218 299.18505764 C243.01425755 298.51300315 246.31025459 297.84473941 249.60642815 297.17730141 C251.12709526 296.86845201 252.64741902 296.55790622 254.16736031 296.24550438 C256.22650825 295.82241644 258.28677492 295.40526603 260.34741211 294.98950195 C261.49833847 294.75471634 262.64926483 294.51993073 263.83506775 294.2780304 C266.59343529 293.83014046 269.10828557 293.68061631 271.89453125 293.78125 C262.68072434 280.63008959 252.9311809 268.04809087 242.4921875 255.84765625 C240.16800383 253.12354014 237.93529541 250.33455007 235.70703125 247.53125 C224.09081354 233.36708816 210.8188768 220.60773569 197.89453125 207.65625 C196.80313843 206.56083893 196.80313843 206.56083893 195.68969727 205.44329834 C193.57346258 203.32116603 191.4534192 201.20291717 189.33203125 199.0859375 C188.70220337 198.45413574 188.07237549 197.82233398 187.42346191 197.17138672 C183.07498971 192.8450639 178.55060446 188.77324104 173.89453125 184.78125 C173.29211105 184.2614859 172.68969086 183.7417218 172.0690155 183.20620728 C168.61860212 180.22957445 165.15075282 177.27326322 161.68505859 174.31445312 C160.00625473 172.87691723 158.334351 171.43178679 156.6640625 169.984375 C149.59833765 163.89217438 142.28411741 158.22425957 134.78515625 152.67578125 C131.35983583 150.14020869 127.99940687 147.5342359 124.64453125 144.90625 C80.15023305 110.45008777 30.11066445 82.75476691 -20.41796875 58.28125 C-21.5790918 57.71792969 -22.74021484 57.15460938 -23.93652344 56.57421875 C-31.9032889 52.74724858 -39.95815785 49.202612 -48.10546875 45.78125 C-49.46303753 36.8936862 -49.46303753 36.8936862 -47.98046875 32.28125 C-45.79518807 29.36754243 -44.62972616 28.60084475 -41.10546875 27.78125 C-34.76221621 26.92620342 -29.85551578 29.86428155 -24.29296875 32.53125 C-22.71213501 33.2739917 -22.71213501 33.2739917 -21.09936523 34.03173828 C-17.76271974 35.60387101 -14.43421136 37.19246544 -11.10546875 38.78125 C-9.01989587 39.76379515 -6.93396579 40.74558252 -4.84765625 41.7265625 C9.20482545 48.36917082 23.02244504 55.41347768 36.76928711 62.66479492 C38.13748002 63.38354807 39.51219759 64.09008317 40.89453125 64.78125 C43.86453125 60.82125 46.83453125 56.86125 49.89453125 52.78125 C39.3243385 47.34525445 28.63017881 42.34802065 17.70336914 37.67138672 C15.32800591 36.65452681 12.95579814 35.63057677 10.58398438 34.60546875 C9.01967033 33.93196854 7.45521854 33.25878817 5.890625 32.5859375 C5.1323642 32.25857605 4.37410339 31.9312146 3.59286499 31.59393311 C-0.06207351 30.02898699 -3.72207928 28.53051822 -7.45654297 27.16503906 C-8.14103012 26.91005646 -8.82551727 26.65507385 -9.53074646 26.3923645 C-11.37518225 25.71292019 -13.22821615 25.05694417 -15.08178711 24.40283203 C-18.76540588 22.42732974 -20.13410087 20.42496973 -22.10546875 16.78125 C-23.03939371 11.83007427 -22.86693293 7.30417836 -20.60546875 2.78125 C-14.17523644 -2.36293585 -7.4723213 -3.67566877 0 0 Z M73.89453125 63.78125 C72.49931569 66.02078056 71.12890341 68.2701161 69.76953125 70.53125 C69.37121094 71.16546875 68.97289062 71.7996875 68.5625 72.453125 C67.27618905 74.5394373 67.27618905 74.5394373 65.89453125 77.78125 C66.97823582 81.06722199 68.43886709 82.43885477 71.41015625 84.09375 C72.15152832 84.51906006 72.89290039 84.94437012 73.65673828 85.38256836 C74.47770996 85.8441333 75.29868164 86.30569824 76.14453125 86.78125 C85.32030016 92.11514581 94.20063883 97.82099697 103.01953125 103.71875 C103.6668219 104.15160309 104.31411255 104.58445618 104.98101807 105.03042603 C115.45577659 112.04922458 125.78304358 119.24609185 135.89453125 126.78125 C136.49974609 127.23097168 137.10496094 127.68069336 137.72851562 128.14404297 C146.39979883 134.59503886 146.39979883 134.59503886 150.08984375 137.5234375 C151.80136893 138.97184755 151.80136893 138.97184755 153.89453125 138.78125 C155.33002851 137.18790761 156.69280452 135.52873918 158.01953125 133.84375 C162.15457544 128.66991837 166.44790261 123.6882925 170.89453125 118.78125 C168.73379676 116.46910761 166.54003034 114.79900734 163.8515625 113.13671875 C163.03776123 112.63205078 162.22395996 112.12738281 161.38549805 111.60742188 C160.501604 111.06666016 159.61770996 110.52589844 158.70703125 109.96875 C157.77866455 109.39833984 156.85029785 108.82792969 155.89379883 108.24023438 C137.21992913 96.82142066 118.22669127 86.04323727 98.89453125 75.78125 C97.81993652 75.20971191 96.7453418 74.63817383 95.63818359 74.04931641 C92.43530562 72.3493748 89.22848281 70.65719482 86.01953125 68.96875 C85.03202881 68.44651855 84.04452637 67.92428711 83.02709961 67.38623047 C82.11968018 66.9120166 81.21226074 66.43780273 80.27734375 65.94921875 C79.47699707 65.52922607 78.67665039 65.1092334 77.85205078 64.67651367 C75.95015116 63.64261249 75.95015116 63.64261249 73.89453125 63.78125 Z M190.89453125 131.78125 C189.72740357 133.57830162 188.61130763 135.40851659 187.515625 137.25 C186.84208984 138.37792969 186.16855469 139.50585938 185.47460938 140.66796875 C184.76033803 141.8723492 184.04614637 143.07677691 183.33203125 144.28125 C182.61426762 145.48587695 181.89617306 146.69030678 181.17773438 147.89453125 C179.4133899 150.85484077 177.65249559 153.8171487 175.89453125 156.78125 C178.5797005 160.21470471 181.12785853 162.9312715 184.58203125 165.59375 C191.32661453 170.99482672 197.51946055 176.93152544 203.77734375 182.8828125 C207.04190014 185.98689001 210.35553789 189.02155199 213.70703125 192.03125 C219.36029827 197.18985616 224.78775872 202.56568078 230.20703125 207.96875 C231.05563721 208.81276367 231.90424316 209.65677734 232.77856445 210.52636719 C237.13512682 214.89365472 241.34464458 219.3152527 245.31933594 224.03442383 C247.92801203 226.92733726 250.88035024 229.32069407 253.89453125 231.78125 C260.13949941 225.63791785 266.21756141 219.46083504 271.89453125 212.78125 C273.20501714 211.27949004 274.51748913 209.77946068 275.83203125 208.28125 C276.41855469 207.6109375 277.00507813 206.940625 277.609375 206.25 C278.03347656 205.7653125 278.45757812 205.280625 278.89453125 204.78125 C275.30490239 195.97221826 265.00429381 188.84475988 257.89453125 182.78125 C256.7814164 181.80598219 255.66955521 180.82928261 254.55859375 179.8515625 C246.87344632 173.10404756 239.06280089 166.58895709 230.95117188 160.36083984 C229.46334589 159.21812449 227.97797732 158.07220716 226.49414062 156.92431641 C209.85085043 141.46091265 209.85085043 141.46091265 190.89453125 131.78125 Z M297.89453125 222.78125 C297.22808594 223.88339844 296.56164062 224.98554688 295.875 226.12109375 C289.3970997 236.79712845 282.73252801 247.33247352 275.89453125 257.78125 C278.90885661 262.47580936 282.23929533 266.77821895 285.76953125 271.09375 C290.12929767 276.47454986 294.20555239 281.91233995 297.89453125 287.78125 C306.89250226 287.0477759 315.63987059 285.0753308 324.45703125 283.21875 C326.05395684 282.88568575 327.65096147 282.55300019 329.24804688 282.22070312 C333.13113396 281.41191852 337.01311326 280.59800547 340.89453125 279.78125 C338.15728912 273.99615671 335.06741278 268.84515581 331.33203125 263.65625 C330.80609375 262.91979248 330.28015625 262.18333496 329.73828125 261.42456055 C320.07382718 247.98963677 309.7994781 234.32032378 297.89453125 222.78125 Z " fill="#034EA2" transform="translate(168.10546875,58.21875)"/>
<path d="M0 0 C1.10708313 0.15422424 2.21416626 0.30844849 3.35479736 0.46734619 C101.94761226 14.24029595 199.26371089 36.41120483 432.0625 128.0625 C433.1340332 128.58730957 434.20556641 129.11211914 435.30957031 129.65283203 C465.86777383 144.64643205 495.73326471 161.25297406 524.50732422 179.44726562 C527.15807183 181.12291498 529.81520818 182.78812628 532.47265625 184.453125 C545.55185985 192.6793014 558.36965889 201.25306969 571.0625 210.0625 C571.82401367 210.59085449 572.58552734 211.11920898 573.37011719 211.66357422 C587.23546571 221.31105521 600.95295569 231.20511635 614.25 241.625 C615.07769897 242.26646973 615.07769897 242.26646973 615.92211914 242.92089844 C619.0856402 245.40082606 622.0975251 247.98379071 625.05859375 250.703125 C625.74606689 251.31341553 626.43354004 251.92370605 627.1418457 252.55249023 C628.46499883 253.73131087 629.76406837 254.9379841 631.03198242 256.17602539 C633.71100513 258.52781224 635.74433601 260.10639626 639.41081238 259.98429871 C640.74502983 259.71979668 640.74502983 259.71979668 642.10620117 259.44995117 C643.17350464 259.24504562 644.24080811 259.04014008 645.3404541 258.82902527 C647.18286682 258.44959526 647.18286682 258.44959526 649.0625 258.0625 C650.47878086 257.78145356 651.89525475 257.50137861 653.31188965 257.22212219 C658.39367774 256.21279799 663.4681577 255.16873482 668.54296875 254.125 C670.47578112 253.72922703 672.40863857 253.33367412 674.34153748 252.93832397 C678.47632106 252.09225559 682.61084883 251.24495243 686.74517822 250.39666748 C696.77172375 248.33962043 706.79974201 246.28977102 716.82769012 244.23957443 C719.11998707 243.77089957 721.41226907 243.3021516 723.70453644 242.83333206 C738.7466711 239.75697411 753.79089254 236.69128209 768.83984375 233.6484375 C769.70210257 233.47408236 770.56436138 233.29972721 771.45274925 233.12008858 C780.14749796 231.36231706 788.84283734 229.60748558 797.53869915 227.85522938 C802.09625054 226.93672503 806.6536375 226.01740705 811.2109375 225.09765625 C812.14199625 224.90976469 813.073055 224.72187313 814.03232765 224.52828789 C830.44220228 221.21483175 846.84273778 217.85643398 863.24181116 214.49004126 C868.41845591 213.42755739 873.59547144 212.36689544 878.7727356 211.30743408 C879.87009259 211.08286931 879.87009259 211.08286931 880.98961842 210.85376787 C883.94625175 210.24877093 886.90290071 209.64385059 889.85959744 209.03916359 C898.65417081 207.24054317 907.4475188 205.43619332 916.23890531 203.62205762 C921.77259071 202.48068624 927.30768888 201.34634791 932.84391367 200.21735889 C936.07613488 199.55795581 939.30735301 198.89417494 942.53737259 198.22405815 C946.07556842 197.49047393 949.61599592 196.76881694 953.15722656 196.05004883 C954.19653635 195.83156973 955.23584614 195.61309063 956.30665016 195.38799095 C957.26170134 195.19665392 958.21675251 195.00531689 959.20074463 194.80818176 C960.02445683 194.63890576 960.84816902 194.46962976 961.69684219 194.29522419 C964.40239718 194.02906224 966.45828107 194.29488212 969.0625 195.0625 C975.27501274 203.6745547 978.34281196 217.54318008 977.0625 228.0625 C976.30098048 232.47710589 975.37883517 236.77949899 974.0625 241.0625 C973.92958054 241.76612671 973.79666107 242.46975342 973.65971375 243.19470215 C972.85403197 246.05854773 972.00030441 247.780674 970.0625 250.0625 C964.83524753 252.51689361 959.33898493 253.62820727 953.72265625 254.875 C952.01842008 255.28347703 950.31515271 255.69601431 948.61280823 256.11230469 C944.97677564 256.99765768 941.33699107 257.86441589 937.69366455 258.71923828 C929.32024472 260.6981867 921.00296799 262.89371264 912.67805862 265.06582832 C907.76380449 266.34458047 902.8451439 267.60614823 897.92675781 268.86889648 C895.88072593 269.39463955 893.83470554 269.92042741 891.78869629 270.44625854 C890.75800522 270.71111431 889.72731415 270.97597008 888.66539001 271.24885178 C883.24767347 272.64144966 877.83040171 274.03577569 872.41308594 275.42993164 C852.63537391 280.51917893 832.8564469 285.6036631 813.07482624 290.67769814 C803.69426687 293.08385428 794.31420466 295.49194173 784.93446636 297.90129662 C778.2449664 299.61940899 771.55473009 301.33461542 764.86393261 303.0476675 C760.71113108 304.11162274 756.5590211 305.17825701 752.40709496 306.24562263 C750.48654232 306.73876577 748.56570397 307.23079778 746.64455605 307.72161674 C744.01323707 308.39402701 741.38297774 309.07044117 738.75292969 309.74780273 C737.62249064 310.03512268 737.62249064 310.03512268 736.46921444 310.32824707 C731.21867674 311.68675684 726.23866843 313.33711052 721.0625 315.0625 C725.0225 321.6625 728.9825 328.2625 733.0625 335.0625 C757.47168075 328.03893584 781.80961748 320.78515527 806.1400795 313.49422073 C814.68680065 310.93365454 823.23453253 308.37646257 831.78217888 305.81898689 C833.96563838 305.1656901 836.14908588 304.51235319 838.33252144 303.85897636 C864.14536418 296.13499463 889.96943346 288.44884655 915.79566669 280.7697773 C917.48873944 280.2663361 919.18179336 279.76283156 920.87482738 279.25926018 C924.83194133 278.08230246 928.78929242 276.90616026 932.74729919 275.73220825 C939.0482233 273.86211391 945.34593845 271.98424248 951.62646484 270.04638672 C952.56930832 269.75694687 953.51215179 269.46750702 954.48356628 269.16929626 C956.12716844 268.66288817 957.76909275 268.15097545 959.40864563 267.63160706 C963.02730728 266.51817068 966.26615237 265.59175113 970.0625 266.0625 C971.7578125 267.93359375 971.7578125 267.93359375 973.1875 270.5 C973.66445312 271.32371094 974.14140625 272.14742188 974.6328125 272.99609375 C977.92763971 280.06286795 979.62578333 286.43694245 979.5625 294.25 C979.55750488 295.07226074 979.55250977 295.89452148 979.54736328 296.74169922 C979.32871389 304.49998285 977.63152526 311.10705077 974.0625 318.0625 C973.72778687 318.75251099 973.39307373 319.44252197 973.04821777 320.15344238 C968.75721146 327.8046018 962.89633452 329.89473351 954.9140625 332.6796875 C953.57255399 333.17289495 952.23204673 333.66883294 950.89247131 334.16726685 C948.01345869 335.23212747 945.12853606 336.27809447 942.23739624 337.30957031 C937.61593869 338.95850379 933.00995502 340.64796769 928.40551758 342.34375 C922.74624292 344.42500613 917.08352348 346.4963333 911.4160738 348.55522537 C900.97295705 352.34999348 890.55968508 356.22030213 880.16015625 360.1328125 C879.39224007 360.4216588 878.62432388 360.7105051 877.83313751 361.00810432 C874.75381027 362.16662107 871.67465267 363.3255866 868.59578705 364.48532963 C861.08169174 367.31563448 853.5629884 370.1335883 846.04364777 372.94992256 C842.4591241 374.29254888 838.87483352 375.63579711 835.29052734 376.97900391 C834.60037033 377.23762364 833.91021332 377.49624338 833.19914246 377.76270008 C822.70677725 381.69455659 812.21556754 385.62949492 801.72427368 389.56420898 C796.82664943 391.40101307 791.92894887 393.23761365 787.03125 395.07421875 C785.46289023 395.66235246 783.89453081 396.2504871 782.32617188 396.83862305 C781.24916016 397.24250244 780.17214844 397.64638184 779.0625 398.0625 C780.00720692 399.32459119 780.95226241 400.58642147 781.89746094 401.84814453 C782.42370056 402.5508548 782.94994019 403.25356506 783.49212646 403.97756958 C784.88387754 405.82534916 786.28879034 407.66167685 787.703125 409.4921875 C794.26472851 418.09473683 799.64643976 427.02461189 804.72509766 436.56591797 C806.15434809 439.23395648 807.6111738 441.88550705 809.07421875 444.53515625 C831.889622 485.88829875 848.74538325 528.79100185 854.0625 576.0625 C854.19398438 577.22652344 854.32546875 578.39054688 854.4609375 579.58984375 C860.25891019 644.22940416 840.07894998 707.51023986 806.4375 762.125 C805.94797852 762.920271 805.45845703 763.71554199 804.95410156 764.53491211 C803.94002071 766.14805675 802.89335032 767.74107621 801.81860352 769.31445312 C800.44749019 771.46004628 799.37462334 773.46498072 798.28881836 775.74804688 C795.71895349 780.68344379 793.16836397 785.07236383 787.62670898 786.83901978 C781.49428712 787.88387379 775.38364077 787.79540321 769.18481445 787.55810547 C765.86942276 787.43729677 762.56923861 787.43497199 759.25195312 787.44921875 C757.13270002 787.41841079 755.01353171 787.3808807 752.89453125 787.3359375 C751.91208939 787.33330902 750.92964752 787.33068054 749.91743469 787.32797241 C746.00403203 787.14000136 743.17307752 786.96903475 740.07466125 784.43988037 C738.2861654 782.38599062 736.68050471 780.25214879 735.0625 778.0625 C733.96418395 776.88085581 732.84270188 775.7202573 731.69750977 774.58398438 C731.13745743 774.02400757 730.57740509 773.46403076 730.00038147 772.88708496 C729.42404465 772.31590942 728.84770782 771.74473389 728.25390625 771.15625 C727.64232162 770.54608032 727.030737 769.93591064 726.40061951 769.30725098 C724.47778198 767.38993835 722.55146906 765.47616298 720.625 763.5625 C719.30770941 762.25023415 717.99065014 760.93773605 716.67382812 759.625 C713.4727139 756.43481494 710.26848135 753.24779349 707.0625 750.0625 C705.30415251 751.97607337 703.54643186 753.89021618 701.7890625 755.8046875 C701.2947876 756.34246826 700.8005127 756.88024902 700.29125977 757.43432617 C697.08138042 760.93237423 693.92529165 764.47026579 690.81640625 768.05859375 C687.97911579 771.30030869 685.07436217 774.48107428 682.17578125 777.66796875 C680.72662653 779.30998694 679.34027313 781.00896112 678.01171875 782.75 C674.50920503 786.90528682 670.2477027 787.85560013 665.05078125 788.34765625 C659.34447409 788.50908929 655.86666571 788.38238051 651.0625 785.0625 C651.63809906 781.73122042 652.57332139 780.25293712 655.0625 778 C658.90014593 774.32549286 662.16382134 770.3342906 665.4921875 766.19921875 C668.34589426 762.68204201 671.33000865 759.28292845 674.3125 755.875 C685.21692417 743.36407779 695.48718846 730.38288769 705.48925781 717.14306641 C707.00608512 715.13710702 708.52980426 713.13655739 710.0546875 711.13671875 C727.49200278 688.18437247 743.09874163 664.27588139 757.0625 639.0625 C757.53042969 638.22525391 757.99835937 637.38800781 758.48046875 636.52539062 C786.46410945 586.16267592 803.58520378 524.2183352 789.25 466.9375 C782.19940994 443.3206739 769.99041036 424.45601885 753.32421875 406.5078125 C751.3720112 404.3971356 749.48943722 402.25022443 747.625 400.0625 C743.93885031 395.80992069 739.92980252 391.8976307 735.90625 387.96875 C733.74630508 385.81415243 731.73784902 383.5645925 729.74609375 381.25390625 C725.89421803 376.80781912 721.79445383 372.64693653 717.625 368.5 C716.91279297 367.78392578 716.20058594 367.06785156 715.46679688 366.33007812 C711.42378853 362.29441403 707.27508862 358.4597178 702.94897461 354.73071289 C700.01847146 352.13926368 697.29540272 349.35909593 694.5625 346.5625 C690.54799811 342.50258129 686.50554466 338.56694811 682.15234375 334.8671875 C679.40116075 332.49139957 676.73440729 330.0264318 674.0625 327.5625 C669.45488087 323.32445699 664.80693466 319.14683941 660.0625 315.0625 C659.55992676 314.62824707 659.05735352 314.19399414 658.53955078 313.74658203 C650.8067538 307.06714153 642.99986719 300.49848689 635.0625 294.0625 C633.84851933 293.06694133 632.63500776 292.07081046 631.421875 291.07421875 C622.5497481 283.80104161 613.52947107 276.75533009 604.38427734 269.82958984 C601.9097686 267.94625711 599.44826048 266.04679745 596.98828125 264.14453125 C587.04757425 256.47735449 576.98406512 249.11402524 566.5546875 242.125 C563.26785213 239.9136768 560.06445677 237.61118631 556.875 235.26171875 C550.46033173 230.57069334 543.84310061 226.21194384 537.1875 221.875 C536.23857376 221.25513214 536.23857376 221.25513214 535.27047729 220.6227417 C516.83907221 208.58775935 498.07682672 197.15245507 479.0625 186.0625 C478.23911133 185.57990723 477.41572266 185.09731445 476.56738281 184.60009766 C409.0079447 145.07525189 337.01102559 113.71102903 128.0625 51.0625 C127.2827179 50.88523376 126.50293579 50.70796753 125.69952393 50.52532959 C82.7050422 40.76827302 39.1845351 34.01734823 -4.546875 28.5703125 C-5.56031982 28.44106888 -6.57376465 28.31182526 -7.61791992 28.17866516 C-13.04927211 27.4966353 -18.47331782 26.91412063 -23.92773438 26.44824219 C-25.64455414 26.28580521 -25.64455414 26.28580521 -27.39605713 26.12008667 C-29.58913247 25.91480986 -31.78480729 25.73515692 -33.98236084 25.5852356 C-41.127449 24.88411624 -41.127449 24.88411624 -43.49360657 22.48417664 C-46.43720541 17.49416073 -47.25609182 12.65996592 -45.9375 7.0625 C-35.98786164 -9.23104946 -15.81361877 -2.23251436 0 0 Z M820.0625 534.0625 C818.57344674 535.55155326 818.65776788 537.02452597 818.3359375 539.09375 C812.21131978 576.51768698 798.28625151 610.94476887 780.0625 644.0625 C784.08998053 648.89548806 788.30629413 653.44360004 792.7734375 657.87109375 C793.38643707 658.48267838 793.99943665 659.094263 794.63101196 659.72438049 C796.56414564 661.65197559 798.50074987 663.57603928 800.4375 665.5 C801.75934699 666.81682404 803.08096372 668.13387926 804.40234375 669.45117188 C807.61974299 672.65762373 810.84025681 675.86091629 814.0625 679.0625 C816.90754913 677.63997544 817.12993851 675.57179593 818.11816406 672.69213867 C818.36791992 671.92748291 818.61767578 671.16282715 818.875 670.375 C819.13635742 669.58134033 819.39771484 668.78768066 819.66699219 667.9699707 C833.85539358 623.50868016 832.08694653 578.97869482 821.0625 534.0625 C820.7325 534.0625 820.4025 534.0625 820.0625 534.0625 Z M762.0625 674.0625 C761.70647705 674.60438965 761.3504541 675.1462793 760.98364258 675.70458984 C750.30161754 691.93006143 739.49803815 708.10979854 727.0625 723.0625 C730.0929901 728.72787435 733.68367765 733.61167848 737.6875 738.625 C743.00999692 745.37123874 748.13569937 752.21098398 753.07421875 759.2421875 C754.69962572 761.5477746 756.35458772 763.81781529 758.0625 766.0625 C774.94864688 758.87930612 790.9734824 728.77222365 799.0625 713.0625 C798.42634766 712.44375 798.42634766 712.44375 797.77734375 711.8125 C794.05794688 708.15032462 790.5511954 704.38234071 787.14453125 700.4296875 C783.99177037 696.84512259 780.73290649 693.3602469 777.48364258 689.86328125 C774.0865065 686.19847252 770.77371951 682.47848577 767.5625 678.6484375 C765.87797001 676.86739798 764.03477926 675.51190297 762.0625 674.0625 Z " fill="#034EA2" transform="translate(220.9375,2.9375)"/>
<path d="M0 0 C0.78978241 0.14883636 1.57956482 0.29767273 2.39328003 0.45101929 C36.62188479 6.95323648 70.43404107 15.37784709 103.875 25.125 C104.55242249 25.32152161 105.22984497 25.51804321 105.92779541 25.72052002 C157.41385607 40.66449396 207.49925147 58.55391279 256.07745361 81.28515625 C257.77907431 82.08018191 259.48297769 82.87031651 261.18701172 83.66015625 C275.40254536 90.25469042 289.25454701 97.37457257 302.875 105.125 C303.90044922 105.70846191 304.92589844 106.29192383 305.98242188 106.89306641 C337.69492838 125.06189025 367.94860144 145.51916053 395.875 169.125 C396.52936035 169.67494629 397.1837207 170.22489258 397.85791016 170.79150391 C403.87602753 175.85374036 409.85623334 180.89844354 415.3203125 186.56640625 C417.01662726 188.2669831 418.79806297 189.815867 420.625 191.375 C427.96217718 197.71489096 434.79405335 204.67639515 441.08203125 212.0546875 C443.20646824 214.5077411 445.41688637 216.87203147 447.625 219.25 C452.85918312 224.99733833 457.65262531 231.02523911 462.38476562 237.18896484 C463.95048798 239.22307007 465.52931538 241.24654767 467.109375 243.26953125 C493.68415781 277.43766802 517.50878278 317.09144199 528.875 359.125 C529.11726318 360.0005957 529.35952637 360.87619141 529.60913086 361.77832031 C544.93791722 419.49003931 532.7496018 491.45867063 513.875 547.125 C513.31449951 548.79949219 513.31449951 548.79949219 512.74267578 550.5078125 C500.89675918 585.69536769 485.48342826 619.5398727 465.875 651.125 C465.34938477 651.97368652 464.82376953 652.82237305 464.28222656 653.69677734 C432.98818043 704.01181957 432.98818043 704.01181957 415.875 721.125 C411.48862368 720.95629322 409.39063984 720.56217291 406 717.6875 C403.81873971 715.05715671 402.99826821 713.89898211 402.46875 710.57421875 C403.06588999 705.50427055 405.60238764 702.14562942 408.375 697.9375 C409.57798192 696.0523495 410.77838184 694.16554952 411.9765625 692.27734375 C412.61368164 691.27815918 413.25080078 690.27897461 413.90722656 689.24951172 C442.81837814 643.34319437 467.82881076 594.93745814 486.875 544.125 C487.48166504 542.52519287 487.48166504 542.52519287 488.10058594 540.89306641 C500.50565152 508.06944398 507.77100445 474.89703502 511.875 440.125 C511.98102539 439.29548828 512.08705078 438.46597656 512.19628906 437.61132812 C513.14078334 429.56112245 513.11767809 421.46948143 513.125 413.375 C513.12600708 412.60076691 513.12701416 411.82653381 513.12805176 411.02883911 C513.11678117 398.17622206 512.28455246 385.77318395 509.875 373.125 C509.67414795 371.97837891 509.67414795 371.97837891 509.46923828 370.80859375 C499.85837232 316.47516487 463.28412307 264.91379995 426.20947266 225.55664062 C424.18460866 223.38433867 422.22007472 221.15944067 420.25 218.9375 C413.89268594 211.85593497 407.21769009 205.13582107 399.98046875 198.953125 C397.51772972 196.8147913 395.14012657 194.59415401 392.75 192.375 C387.4652561 187.55139026 381.92288315 183.14531955 376.265625 178.76953125 C373.32857673 176.49471042 370.47125422 174.13788506 367.625 171.75 C336.70584893 146.39539861 301.32522025 125.46449869 265.875 107.125 C264.70775391 106.51946289 263.54050781 105.91392578 262.33789062 105.29003906 C225.38734492 86.18383019 186.96093641 70.91512235 147.8125 56.9375 C145.99673462 56.28744995 145.99673462 56.28744995 144.14428711 55.62426758 C137.46430972 53.27182081 130.75998627 51.18431729 123.9375 49.28759766 C119.89937411 48.15056392 115.89793009 46.90262688 111.89181519 45.65826416 C99.12945506 41.70447419 86.28147637 38.26677825 73.3125 35.0625 C71.74702927 34.67356064 71.74702927 34.67356064 70.14993286 34.27676392 C53.81689793 30.22665628 37.48887513 26.50264888 20.9276123 23.49871826 C18.64398683 23.08293953 16.36150927 22.66118108 14.07910156 22.23876953 C8.86686785 21.27514681 3.65269786 20.32244023 -1.5625 19.375 C-2.38243439 19.2256601 -3.20236877 19.07632019 -4.04714966 18.92245483 C-14.37927763 17.0483009 -24.70148194 15.4067626 -35.125 14.125 C-34.3643847 9.76518449 -32.95305243 6.69959163 -30.6875 2.875 C-30.07003906 1.81796875 -29.45257813 0.7609375 -28.81640625 -0.328125 C-23.91164315 -7.71358814 -7.70344055 -1.45291599 0 0 Z " fill="#FEF102" transform="translate(201.125,38.875)"/>
<path d="M0 0 C0 2.97 0 5.94 0 9 C-2.64 9.66 -5.28 10.32 -8 11 C-7.89171875 12.48693359 -7.89171875 12.48693359 -7.78125 14.00390625 C-6.5826036 32.64381921 -6.90920118 51.33176167 -7 70 C-11.95 70.99 -16.9 71.98 -22 73 C-22.495 64.09 -22.495 64.09 -23 55 C-24.03898437 55.845625 -25.07796875 56.69125 -26.1484375 57.5625 C-33.74135074 63.73909021 -41.34446899 69.90104646 -49 76 C-49.87398438 76.72960937 -50.74796875 77.45921875 -51.6484375 78.2109375 C-54 80 -54 80 -55.9375 80.0625 C-59.08045177 78.44340363 -61.40747998 76.41575729 -64 74 C-64 73.34 -64 72.68 -64 72 C-62.1640625 70.57958984 -62.1640625 70.57958984 -59.625 68.9609375 C-58.72265625 68.38085938 -57.8203125 67.80078125 -56.890625 67.203125 C-55.93671875 66.59984375 -54.9828125 65.9965625 -54 65.375 C-53.04609375 64.76398438 -52.0921875 64.15296875 -51.109375 63.5234375 C-48.74352502 62.00929351 -46.37366665 60.50184919 -44 59 C-44.68054443 58.75330566 -45.36108887 58.50661133 -46.06225586 58.25244141 C-46.95823486 57.91390137 -47.85421387 57.57536133 -48.77734375 57.2265625 C-50.1075354 56.732771 -50.1075354 56.732771 -51.46459961 56.22900391 C-55.91864574 54.06996026 -58.81140499 50.37719002 -61 46 C-61.08426094 44.3325394 -61.10725143 42.66174813 -61.09765625 40.9921875 C-61.09443359 40.00605469 -61.09121094 39.01992188 -61.08789062 38.00390625 C-61.07951172 36.97136719 -61.07113281 35.93882812 -61.0625 34.875 C-61.05798828 33.83472656 -61.05347656 32.79445313 -61.04882812 31.72265625 C-61.03701967 29.14841313 -61.01908385 26.57419947 -61 24 C-64.3 24.66 -67.6 25.32 -71 26 C-71 22.7 -71 19.4 -71 16 C-65.11865001 14.52336618 -59.23687316 13.04844754 -53.35473633 11.57495117 C-51.36406532 11.07604534 -49.37350106 10.57671337 -47.38305664 10.0769043 C-41.5653679 8.61623049 -35.74569929 7.163919 -29.9229126 5.72369385 C-27.95560825 5.23660229 -25.98877772 4.74759345 -24.0223999 4.2567749 C-21.15596533 3.54293457 -18.28734929 2.83861106 -15.41796875 2.13671875 C-14.55681961 1.92070511 -13.69567047 1.70469147 -12.8084259 1.48213196 C-8.43960317 0.42445825 -4.53384842 -0.25108991 0 0 Z " fill="#F9FAFC" transform="translate(459,386)"/>
<path d="M0 0 C0 27.72 0 55.44 0 84 C-11 89 -11 89 -15 88 C-17.296875 85.9609375 -17.296875 85.9609375 -19.75 83.375 C-23.32157744 79.63060429 -27.02006755 76.19295928 -30.93408203 72.80761719 C-34.22027678 69.93229387 -37.38820419 66.9351561 -40.5625 63.9375 C-41.95304357 62.63012172 -43.34367077 61.32283238 -44.734375 60.015625 C-46.87205053 58.00357962 -49.0093793 55.9911669 -51.14648438 53.97851562 C-53.19995196 52.04617424 -55.25600436 50.11661776 -57.3125 48.1875 C-57.940354 47.59509521 -58.56820801 47.00269043 -59.21508789 46.39233398 C-59.8002417 45.84391846 -60.38539551 45.29550293 -60.98828125 44.73046875 C-61.49915283 44.24989014 -62.01002441 43.76931152 -62.53637695 43.27416992 C-64.18413374 41.78483243 -64.18413374 41.78483243 -67 40 C-67 62.77 -67 85.54 -67 109 C-77 113 -77 113 -80 113 C-80 83.63 -80 54.26 -80 24 C-68 20 -68 20 -64 21 C-61.484375 23.2578125 -61.484375 23.2578125 -58.75 26.125 C-54.94526768 30.05645113 -51.05609721 33.77290279 -46.89453125 37.32421875 C-44.13339675 39.76654184 -41.58531189 42.40554261 -39 45.03125 C-37.06108998 46.93986455 -35.06300449 48.72710552 -33 50.5 C-29.57217403 53.44578795 -26.38865183 56.56175347 -23.25 59.8125 C-19.96021061 63.01090635 -16.45304933 65.97858184 -13 69 C-12.67 47.22 -12.34 25.44 -12 3 C-3 0 -3 0 0 0 Z " fill="#FCFDFE" transform="translate(142,610)"/>
<path d="M0 0 C0 2.97 0 5.94 0 9 C-1.98 9.66 -3.96 10.32 -6 11 C-6.33 29.81 -6.66 48.62 -7 68 C-14 70 -14 70 -21 71 C-21 52.19 -21 33.38 -21 14 C-26.94 15.65 -32.88 17.3 -39 19 C-39.66 19 -40.32 19 -41 19 C-40.95359375 20.30195313 -40.9071875 21.60390625 -40.859375 22.9453125 C-40.82184153 24.67185196 -40.78544307 26.39841636 -40.75 28.125 C-40.69972656 29.40890625 -40.69972656 29.40890625 -40.6484375 30.71875 C-40.56195424 36.34016196 -41.15889981 39.59383429 -45 44 C-46.96484375 45.64453125 -46.96484375 45.64453125 -48.9375 46.8125 C-49.58589844 47.21082031 -50.23429687 47.60914063 -50.90234375 48.01953125 C-53.25030058 49.11699338 -55.44910122 49.58741985 -58 50 C-52.27057578 57.71102959 -44.8548412 62.68354715 -37 68 C-37.88312038 69.13500694 -38.78218855 70.25761307 -39.6875 71.375 C-40.18636719 72.00148438 -40.68523437 72.62796875 -41.19921875 73.2734375 C-43.3054228 75.29283488 -45.25591363 76.07439676 -48 77 C-75.26387657 55.90076847 -75.26387657 55.90076847 -84 43 C-84 42.34 -84 41.68 -84 41 C-82.03125 39.2734375 -82.03125 39.2734375 -79.5 37.375 C-78.6646875 36.74335938 -77.829375 36.11171875 -76.96875 35.4609375 C-75.99421875 34.73777344 -75.99421875 34.73777344 -75 34 C-73 35.375 -73 35.375 -71 37 C-71 37.66 -71 38.32 -71 39 C-67.06393081 41.62404613 -63.57409061 41.36302306 -59 41 C-57.14580298 40.03420894 -57.14580298 40.03420894 -56 38 C-55.62355152 35.37060795 -55.39866913 32.94927528 -55.3125 30.3125 C-55.27833984 29.61060547 -55.24417969 28.90871094 -55.20898438 28.18554688 C-55.12670053 26.45758613 -55.0616676 24.72881928 -55 23 C-55.91289795 23.20681396 -56.8257959 23.41362793 -57.76635742 23.62670898 C-61.16744923 24.39690218 -64.56866705 25.16653411 -67.9699707 25.93579102 C-69.43942233 26.2682498 -70.90882402 26.60092937 -72.37817383 26.93383789 C-74.49547305 27.41351049 -76.61295315 27.89237737 -78.73046875 28.37109375 C-80.00301514 28.65911865 -81.27556152 28.94714355 -82.58666992 29.24389648 C-85.38585658 29.86395807 -88.18595209 30.45223629 -91 31 C-91 27.7 -91 24.4 -91 21 C-81.57634207 18.70398086 -72.15247611 16.408818 -62.72835255 14.11471081 C-58.35110941 13.04913421 -53.97393515 11.98327648 -49.59692383 10.91674805 C-45.36307377 9.88511458 -41.12903558 8.85425646 -36.89487267 7.82390785 C-35.28951148 7.43311783 -33.68421521 7.04206099 -32.07898903 6.65071678 C-27.71524438 5.58696114 -23.35050478 4.52755869 -18.98346329 3.47741318 C-17.04390998 3.01056899 -15.10512087 2.54055354 -13.16635132 2.07046509 C-12.00890411 1.79495819 -10.85145691 1.51945129 -9.65893555 1.2355957 C-8.65630173 0.99533157 -7.65366791 0.75506744 -6.62065125 0.50752258 C-4 0 -4 0 0 0 Z " fill="#F8FAFC" transform="translate(353,411)"/>
<path d="M0 0 C0 2.64 0 5.28 0 8 C-1.98 8.33 -3.96 8.66 -6 9 C-6 26.49 -6 43.98 -6 62 C-12 64 -12 64 -18 65 C-18 47.84 -18 30.68 -18 13 C-22.29 13.99 -26.58 14.98 -31 16 C-31.99 16 -32.98 16 -34 16 C-34 33.49 -34 50.98 -34 69 C-39.94 69.99 -39.94 69.99 -46 71 C-46 62.42 -46 53.84 -46 45 C-50.29 45.99 -54.58 46.98 -59 48 C-58.938125 49.423125 -58.87625 50.84625 -58.8125 52.3125 C-58.63031625 56.50272628 -58.63031625 56.50272628 -60.32421875 58.78125 C-62 60 -62 60 -65 60.1875 C-70.9578459 59.10076845 -76.79770589 54.20229411 -81 50 C-81.1875 47.5625 -81.1875 47.5625 -81 45 C-79 43 -79 43 -71 42 C-71.33 36.39 -71.66 30.78 -72 25 C-76.63019987 25.4452998 -76.63019987 25.4452998 -78 27 C-78.36760731 29.32817964 -78.70241581 31.6618385 -79 34 C-81.64 34.33 -84.28 34.66 -87 35 C-87.93874865 31.53385112 -88.50856215 29.28091121 -87.1640625 25.89453125 C-84.51177361 21.39239757 -81.8091351 18.26845995 -77 16 C-72.30069553 14.91205813 -68.48233581 14.35147808 -64 16.3125 C-59.72292509 19.92128195 -59.18944877 21.9324357 -58.68359375 27.453125 C-58.56177734 29.33257812 -58.56177734 29.33257812 -58.4375 31.25 C-58.31181641 33.14492188 -58.31181641 33.14492188 -58.18359375 35.078125 C-58.12300781 36.04234375 -58.06242187 37.0065625 -58 38 C-54.04 37.34 -50.08 36.68 -46 36 C-46 30.39 -46 24.78 -46 19 C-48.97 19.66 -51.94 20.32 -55 21 C-55 18.03 -55 15.06 -55 12 C-48.13392861 10.28120816 -41.26520084 8.5733641 -34.39453125 6.87304688 C-32.05829524 6.29352551 -29.7226751 5.71151541 -27.38769531 5.12695312 C-24.0282886 4.28638668 -20.6667573 3.45484165 -17.3046875 2.625 C-16.26384003 2.36251465 -15.22299255 2.1000293 -14.15060425 1.82958984 C-9.34618477 0.65245353 -4.98972636 -0.35694019 0 0 Z " fill="#F7F9FC" transform="translate(117,468)"/>
<path d="M0 0 C0 2.97 0 5.94 0 9 C-1.98 9.66 -3.96 10.32 -6 11 C-6.33 29.15 -6.66 47.3 -7 66 C-16 68 -16 68 -20 68 C-20.90151019 49.98178444 -21.12634835 32.03671288 -21 14 C-22.57201172 14.433125 -22.57201172 14.433125 -24.17578125 14.875 C-25.55463366 15.25019793 -26.93354289 15.62518705 -28.3125 16 C-29.00279297 16.19078125 -29.69308594 16.3815625 -30.40429688 16.578125 C-33.35787949 17.37716184 -35.92559219 18 -39 18 C-38.97381592 18.57443848 -38.94763184 19.14887695 -38.9206543 19.74072266 C-38.816082 22.36853171 -38.75149056 24.99590231 -38.6875 27.625 C-38.64560547 28.52863281 -38.60371094 29.43226563 -38.56054688 30.36328125 C-38.48012063 34.77063939 -38.45243188 37.97199277 -41.29296875 41.5 C-45.08545304 45.0024386 -48.61905264 48 -54 48 C-50.91916965 53.3517517 -47.28294834 56.37381855 -42.25 59.875 C-41.55261719 60.37257813 -40.85523438 60.87015625 -40.13671875 61.3828125 C-38.43104537 62.59781272 -36.71641273 63.80021896 -35 65 C-36.09898702 68.29696105 -36.94597387 69.04670589 -39.5625 71.1875 C-40.20316406 71.71730469 -40.84382813 72.24710938 -41.50390625 72.79296875 C-41.99761719 73.19128906 -42.49132812 73.58960938 -43 74 C-47.42792169 72.56413409 -50.12236172 70.35635569 -53.5 67.1875 C-54.01119385 66.70901611 -54.5223877 66.23053223 -55.04907227 65.73754883 C-59.06962457 61.94729941 -63.01618257 58.08008364 -66.9375 54.1875 C-67.46859375 53.66115967 -67.9996875 53.13481934 -68.546875 52.5925293 C-77.89005112 43.20943771 -77.89005112 43.20943771 -78.1875 39.9375 C-76.31936247 36.88948613 -73.87673149 35.07124667 -71 33 C-70.01 33 -69.02 33 -68 33 C-67.278125 33.99 -66.55625 34.98 -65.8125 36 C-64.23723609 38.04111939 -63.52049298 38.88889477 -60.96875 39.43359375 C-58.06965367 39.43884574 -55.6178119 39.30890595 -53 38 C-52.68758545 35.28553021 -52.48663408 32.66090639 -52.375 29.9375 C-52.33632812 29.17888672 -52.29765625 28.42027344 -52.2578125 27.63867188 C-52.16326438 25.75952805 -52.08053244 23.87979664 -52 22 C-53.34747314 22.31807617 -53.34747314 22.31807617 -54.72216797 22.64257812 C-58.05020616 23.42706582 -61.37869782 24.20956928 -64.70751953 24.99072266 C-66.14911334 25.32944362 -67.59052092 25.66895819 -69.03173828 26.00927734 C-71.10140499 26.49784973 -73.17172111 26.98357927 -75.2421875 27.46875 C-76.4885498 27.76201172 -77.73491211 28.05527344 -79.01904297 28.35742188 C-82 29 -82 29 -84 29 C-84 26.03 -84 23.06 -84 20 C-68.76263147 15.53797928 -53.33501276 11.87365628 -37.89038086 8.21411133 C-34.24455893 7.35018716 -30.60025225 6.48004558 -26.95631504 5.60821056 C-24.1285294 4.93235343 -21.29998871 4.25970274 -18.47120476 3.58803749 C-17.12534924 3.26807085 -15.77973045 2.94710675 -14.4343586 2.62511253 C-12.56972885 2.17934302 -10.70395707 1.73835869 -8.83813477 1.29760742 C-7.77990005 1.04621506 -6.72166534 0.79482269 -5.63136292 0.53581238 C-3 0 -3 0 0 0 Z " fill="#F6F8FB" transform="translate(231,440)"/>
<path d="M0 0 C0 26.07 0 52.14 0 79 C-9 83 -9 83 -12 83 C-12 70.79 -12 58.58 -12 46 C-17.74789873 47.95597087 -23.49551121 49.91274404 -29.24243164 51.87158203 C-31.19669676 52.53742217 -33.15112244 53.20279125 -35.10571289 53.86767578 C-37.91855754 54.82460081 -40.73081642 55.78323012 -43.54296875 56.7421875 C-44.41398727 57.03809784 -45.2850058 57.33400818 -46.18241882 57.6388855 C-47.002892 57.91902496 -47.82336517 58.19916443 -48.66870117 58.48779297 C-49.38595871 58.73206024 -50.10321625 58.97632751 -50.84220886 59.22799683 C-53.25126861 60.08989756 -55.62439813 61.04975925 -58 62 C-58.33 74.87 -58.66 87.74 -59 101 C-69 105 -69 105 -71 105 C-71 77.28 -71 49.56 -71 21 C-65.06 19.515 -65.06 19.515 -59 18 C-59 29.22 -59 40.44 -59 52 C-56.97875 51.21625 -54.9575 50.4325 -52.875 49.625 C-39.7492807 44.62806172 -26.33046434 40.40381411 -13 36 C-12.67 25.11 -12.34 14.22 -12 3 C-4 0 -4 0 0 0 Z " fill="#F9FBFC" transform="translate(235,581)"/>
<path d="M0 0 C1.04882812 1.62182617 1.04882812 1.62182617 2.03125 3.79296875 C2.42086914 4.63303467 2.81048828 5.47310059 3.21191406 6.33862305 C3.63698242 7.27875244 4.06205078 8.21888184 4.5 9.1875 C8.18285845 17.15328463 11.99626478 25.02713371 15.984375 32.84375 C16.41693604 33.69463699 16.84949707 34.54552399 17.29516602 35.42219543 C19.05015824 38.87413182 20.80508828 42.32586586 22.58178711 45.76669312 C23.84125369 48.20765959 25.0858934 50.6556973 26.328125 53.10546875 C26.71401794 53.84313477 27.09991089 54.58080078 27.49749756 55.34082031 C30.06741703 60.45337868 30.06741703 60.45337868 29.73382568 63.15815735 C29 65 29 65 26.71484375 66.046875 C25.79832031 66.27890625 24.88179688 66.5109375 23.9375 66.75 C23.01839844 66.99234375 22.09929687 67.2346875 21.15234375 67.484375 C20.44207031 67.65453125 19.73179687 67.8246875 19 68 C16 62 13 56 10 50 C5.78333274 50.59499466 2.03768748 51.57933179 -1.94921875 53.06640625 C-3.04427734 53.46923828 -4.13933594 53.87207031 -5.26757812 54.28710938 C-6.39615234 54.70798828 -7.52472656 55.12886719 -8.6875 55.5625 C-10.9397732 56.40153224 -13.1936128 57.23637524 -15.44921875 58.06640625 C-16.44268311 58.43709229 -17.43614746 58.80777832 -18.4597168 59.18969727 C-21 60 -21 60 -24 60 C-24.14695312 60.59683594 -24.29390625 61.19367187 -24.4453125 61.80859375 C-25.24198146 64.88996276 -26.11280463 67.94336086 -27 71 C-27.19867676 71.70656738 -27.39735352 72.41313477 -27.60205078 73.14111328 C-28.26232978 75.43947771 -28.96997229 77.71892256 -29.6875 80 C-29.89455566 80.7417749 -30.10161133 81.4835498 -30.31494141 82.24780273 C-31.33475757 85.36120786 -32.02899338 87.40044554 -34.88525391 89.1640625 C-38.06863328 90.4109043 -40.56439172 91 -44 91 C-42.59034821 83.89575878 -40.47286327 77.27731149 -38 70.4765625 C-37.6080394 69.38446472 -37.2160788 68.29236694 -36.8122406 67.16717529 C-35.54812338 63.65068179 -34.27544315 60.13740047 -33 56.625 C-32.56793243 55.43513489 -32.13586487 54.24526978 -31.69070435 53.01934814 C-31.25789154 51.82783142 -30.82507874 50.6363147 -30.37915039 49.40869141 C-29.94912216 48.22445587 -29.51909393 47.04022034 -29.07603455 45.82009888 C-28.21915392 43.4606512 -27.36146437 41.10149713 -26.50294495 38.74264526 C-24.19954609 32.39279614 -21.97562981 26.02763121 -19.87109375 19.609375 C-19.44193008 18.33342585 -19.01166238 17.05784728 -18.58007812 15.78271484 C-17.84500338 13.59037011 -17.13931748 11.38783513 -16.47070312 9.17431641 C-14.24407759 2.68965998 -14.24407759 2.68965998 -10.60595703 0.67285156 C-6.58951063 -0.64389685 -4.06816574 -1.35605525 0 0 Z " fill="#F7FAFC" transform="translate(289,565)"/>
<path d="M0 0 C7.03865079 -0.20462296 13.68375705 0.35855116 20.625 1.5 C21.53378906 1.64308594 22.44257812 1.78617188 23.37890625 1.93359375 C25.58711883 2.28225889 27.79397643 2.63778827 30 3 C29.67546172 14.1552831 28.13693574 24.59791062 25.67138672 35.46582031 C25.12130694 37.89128379 24.58855656 40.32006932 24.05859375 42.75 C22.33061463 50.59393434 20.51816685 58.36372518 18 66 C11.24476394 64.6393319 4.91424405 62.71290027 -1.5625 60.375 C-2.93245117 59.88773438 -2.93245117 59.88773438 -4.33007812 59.390625 C-6.55511941 58.59846371 -8.77832175 57.8015341 -11 57 C-10.3143883 52.65103847 -9.4483175 48.37574442 -8.4765625 44.08203125 C-8.17549272 42.73966624 -7.87480723 41.397215 -7.57446289 40.0546875 C-7.34123825 39.01393066 -7.34123825 39.01393066 -7.103302 37.95214844 C-4.28765192 25.35654716 -1.7317248 12.79827091 0 0 Z " fill="#FDFEFE" transform="translate(840,562)"/>
<path d="M0 0 C13.57559795 -0.09225513 13.57559795 -0.09225513 20.3125 0.5 C21.40175781 0.5928125 22.49101563 0.685625 23.61328125 0.78125 C24.79470703 0.88953125 24.79470703 0.88953125 26 1 C27.08654928 24.94432678 22.00965294 51.49242778 14 74 C8.45044957 73.42389687 3.73970503 71.97901452 -1.4375 69.9375 C-2.16904297 69.65583984 -2.90058594 69.37417969 -3.65429688 69.08398438 C-5.43873546 68.39586753 -7.21973905 67.69885394 -9 67 C-8.44292098 62.10831565 -7.72707675 57.41605667 -6.5625 52.625 C-6.02930049 50.41961982 -5.51001028 48.21085797 -5 46 C-4.83951172 45.34435059 -4.67902344 44.68870117 -4.51367188 44.01318359 C-2.5401492 35.25142346 -2.06523643 26.30778066 -1.375 17.375 C-1.2401258 15.68615451 -1.1047135 13.9973519 -0.96875 12.30859375 C-0.63962689 8.20619729 -0.31779315 4.10328905 0 0 Z " fill="#FDFEFE" transform="translate(614,460)"/>
<path d="M0 0 C2.37310954 2.14478922 3.63500418 4.00742224 4.83203125 6.96484375 C5.15260498 7.75407227 5.47317871 8.54330078 5.8034668 9.35644531 C6.30293823 10.63406738 6.30293823 10.63406738 6.8125 11.9375 C7.33807495 13.27506348 7.33807495 13.27506348 7.87426758 14.63964844 C14.59629854 32.07678369 22.47617905 53.14035971 22 72 C17.68751391 72.02886537 13.37505238 72.04675255 9.0625 72.0625 C7.21495117 72.07506836 7.21495117 72.07506836 5.33007812 72.08789062 C4.16025391 72.09111328 2.99042969 72.09433594 1.78515625 72.09765625 C0.15912476 72.10551147 0.15912476 72.10551147 -1.49975586 72.11352539 C-4 72 -4 72 -5 71 C-5.45347664 68.75712906 -5.86060315 66.50487942 -6.25 64.25 C-8.97657915 49.25039792 -12.37106497 34.64953086 -17.85253906 20.39550781 C-18.14612305 19.61401367 -18.43970703 18.83251953 -18.7421875 18.02734375 C-19.0088623 17.34406006 -19.27553711 16.66077637 -19.55029297 15.95678711 C-20.10992766 13.52167744 -20.01254961 12.28943351 -19 10 C-17.14233398 8.62792969 -17.14233398 8.62792969 -14.74609375 7.421875 C-13.89208984 6.98359375 -13.03808594 6.5453125 -12.15820312 6.09375 C-11.26037109 5.6503125 -10.36253906 5.206875 -9.4375 4.75 C-8.53580078 4.29109375 -7.63410156 3.8321875 -6.70507812 3.359375 C-4.47597285 2.22713105 -2.24118534 1.10808712 0 0 Z " fill="#FDFDFE" transform="translate(616,345)"/>
<path d="M0 0 C3.46889513 11.95631477 5.74458821 23.9135374 7.3125 36.25 C7.3993103 36.92185333 7.48612061 37.59370667 7.57556152 38.28591919 C8.46133252 45.2179342 9.23957403 52.00798746 9 59 C-0.79539929 60.53653322 -10.07092668 61.27538262 -20 61 C-20.03867187 59.57300781 -20.03867187 59.57300781 -20.078125 58.1171875 C-20.51644202 46.37172843 -21.97699254 34.82113986 -23.62792969 23.19677734 C-23.80356445 21.94977051 -23.97919922 20.70276367 -24.16015625 19.41796875 C-24.40197632 17.74383911 -24.40197632 17.74383911 -24.64868164 16.03588867 C-24.96300363 13.31970107 -25.06827753 10.73014852 -25 8 C-21.58752916 6.65574747 -18.16939561 5.32652831 -14.75 4 C-13.78191406 3.6184375 -12.81382812 3.236875 -11.81640625 2.84375 C-10.88183594 2.4828125 -9.94726562 2.121875 -8.984375 1.75 C-7.69611816 1.24726563 -7.69611816 1.24726563 -6.38183594 0.734375 C-4 0 -4 0 0 0 Z " fill="#FDFEFE" transform="translate(863,451)"/>
<path d="M0 0 C5.13192229 1.77322518 9.62394782 4.58468281 14.25 7.375 C15.07757812 7.85710938 15.90515625 8.33921875 16.7578125 8.8359375 C17.54414062 9.3103125 18.33046875 9.7846875 19.140625 10.2734375 C19.85766602 10.70060059 20.57470703 11.12776367 21.31347656 11.56787109 C23.40254297 13.34182355 23.61296263 14.3197763 24 17 C22.94381748 19.72665436 21.82598349 22.23314083 20.51953125 24.8359375 C20.15027023 25.59290924 19.78100922 26.34988098 19.40055847 27.12979126 C18.61660052 28.7311921 17.82692002 30.32980226 17.03198242 31.92578125 C15.82324294 34.35342379 14.63183339 36.78894532 13.44335938 39.2265625 C12.67809276 40.78435046 11.91184756 42.34165814 11.14453125 43.8984375 C10.79018509 44.62050385 10.43583893 45.34257019 10.070755 46.08651733 C7.97541336 50.28211833 5.68526215 54.15379784 3 58 C-2.72284508 57.42063436 -7.953316 56.34232137 -13.4375 54.625 C-14.15615234 54.41617188 -14.87480469 54.20734375 -15.61523438 53.9921875 C-17.68359375 53.3515625 -17.68359375 53.3515625 -21 52 C-22 49 -22 49 -20.95532227 46.31469727 C-20.14405884 44.70679321 -20.14405884 44.70679321 -19.31640625 43.06640625 C-19.02548599 42.480336 -18.73456573 41.89426575 -18.43482971 41.29043579 C-17.80950069 40.03107205 -17.18013747 38.77370504 -16.54718018 37.51815796 C-14.90189122 34.25047519 -13.28967385 30.96678694 -11.68359375 27.6796875 C-11.3642688 27.02620834 -11.04494385 26.37272919 -10.71594238 25.69944763 C-6.65986616 17.32800592 -3.2635426 8.70615866 0 0 Z " fill="#FDFEFE" transform="translate(813,668)"/>
<path d="M0 0 C0 3.3 0 6.6 0 10 C-2.64 10.33 -5.28 10.66 -8 11 C-7.96970703 11.82274414 -7.93941406 12.64548828 -7.90820312 13.49316406 C-7.2169142 32.67377306 -6.85230962 51.80479535 -7 71 C-9.10320063 71.50404808 -11.20759791 72.00310508 -13.3125 72.5 C-14.48425781 72.7784375 -15.65601563 73.056875 -16.86328125 73.34375 C-20 74 -20 74 -23 74 C-23.14492288 68.16916681 -23.28721178 62.33827687 -23.42724609 56.50732422 C-23.4750561 54.53107036 -23.52353835 52.55483263 -23.57275391 50.57861328 C-23.8676622 38.71607761 -24.07700004 26.86656132 -24 15 C-24.92039062 15.32742188 -25.84078125 15.65484375 -26.7890625 15.9921875 C-30.05780017 17.01814166 -32.60001253 17.16190417 -36 17 C-36 14.03 -36 11.06 -36 8 C-7.82608696 0 -7.82608696 0 0 0 Z " fill="#F7F9FC" transform="translate(496,377)"/>
<path d="M0 0 C0.66 0 1.32 0 2 0 C3.4453125 1.46875 3.4453125 1.46875 5.125 3.5 C8.8615876 7.90524012 12.86943366 11.96599235 17 16 C15.44963579 21.24289831 13.16948053 25.87635315 10.625 30.6875 C9.97712524 31.91750732 9.97712524 31.91750732 9.31616211 33.17236328 C4.71437329 41.76138841 -0.48879864 49.94205607 -5.78857422 58.11230469 C-7.24306204 60.37874963 -8.6356492 62.67829118 -10 65 C-12.88305128 64.40074509 -14.99659057 63.54853768 -17.453125 61.93359375 C-18.071875 61.53076172 -18.690625 61.12792969 -19.328125 60.71289062 C-19.96234375 60.29201172 -20.5965625 59.87113281 -21.25 59.4375 C-21.8996875 59.01275391 -22.549375 58.58800781 -23.21875 58.15039062 C-24.81578918 57.1052694 -26.4083442 56.05330163 -28 55 C-26.35920621 50.3570945 -23.91585854 46.3742395 -21.375 42.1875 C-13.27044872 28.60864212 -6.66589379 14.32458027 0 0 Z " fill="#FDFEFE" transform="translate(591,566)"/>
<path d="M0 0 C13.16365235 11.06943493 26.16897895 22.86886304 37.30078125 36.01953125 C40.19846557 39.39683229 43.25190128 42.63560639 46.27734375 45.8984375 C48 48 48 48 48 50 C45.78644691 51.83180396 43.58175699 53.51964604 41.25 55.1875 C40.61578125 55.66380859 39.9815625 56.14011719 39.328125 56.63085938 C38.709375 57.07623047 38.090625 57.52160156 37.453125 57.98046875 C36.60476074 58.59764771 36.60476074 58.59764771 35.73925781 59.22729492 C34 60 34 60 31.93261719 59.78149414 C28.78592217 58.50906226 27.0543676 55.84193827 25 53.25 C24.01534675 52.05017076 23.02829456 50.85230692 22.0390625 49.65625 C21.53407227 49.04394531 21.02908203 48.43164062 20.50878906 47.80078125 C11.07447695 36.54067023 0.43538646 26.31452044 -10 16 C-8.43970755 11.8807065 -6.51846543 8.72633275 -3.875 5.1875 C-3.15054688 4.21167969 -2.42609375 3.23585938 -1.6796875 2.23046875 C-0.84824219 1.12638672 -0.84824219 1.12638672 0 0 Z " fill="#FDFDFE" transform="translate(738,262)"/>
<path d="M0 0 C0.99 0 1.98 0 3 0 C4.91015625 1.984375 4.91015625 1.984375 7.0625 4.75 C7.86429688 5.76707031 8.66609375 6.78414063 9.4921875 7.83203125 C9.90823242 8.3626416 10.32427734 8.89325195 10.75292969 9.43994141 C12.6636163 11.83016996 14.68644934 14.12275328 16.6875 16.4375 C21.28597438 21.93536053 25.44532999 27.69735136 29.5625 33.5625 C30.18278076 34.44413818 30.80306152 35.32577637 31.44213867 36.23413086 C35.87150836 42.61452507 35.87150836 42.61452507 37 46 C35.14967483 47.42192476 33.29500183 48.83750159 31.4375 50.25 C30.40496094 51.03890625 29.37242187 51.8278125 28.30859375 52.640625 C25.02530728 55.06440717 21.57418296 57.03487545 18 59 C17.68885254 58.49774902 17.37770508 57.99549805 17.05712891 57.47802734 C8.32805977 43.42502686 -0.44204618 29.67825147 -11.48046875 17.3046875 C-13 15 -13 15 -13.046875 12.984375 C-11.5474125 10.14211026 -9.4937331 8.46090731 -7.0625 6.375 C-6.16660156 5.59898437 -5.27070312 4.82296875 -4.34765625 4.0234375 C-3.57292969 3.35570312 -2.79820312 2.68796875 -2 2 C-1.34 1.34 -0.68 0.68 0 0 Z " fill="#FDFEFE" transform="translate(560,262)"/>
<path d="M0 0 C12.96436224 4.65756718 24.92246077 14.94799107 36 23 C36.79067871 23.57427734 37.58135742 24.14855469 38.39599609 24.74023438 C40.77476688 26.47946836 43.13950236 28.23606768 45.5 30 C46.60468628 30.80969238 46.60468628 30.80969238 47.73168945 31.63574219 C48.40804443 32.14782227 49.08439941 32.65990234 49.78125 33.1875 C50.6794043 33.85845703 50.6794043 33.85845703 51.59570312 34.54296875 C53.33795308 36.35064395 53.71411234 37.51817645 54 40 C53.27770097 42.66259249 52.49781422 45.16628604 51.5625 47.75 C51.31951172 48.44738281 51.07652344 49.14476562 50.82617188 49.86328125 C50.22689752 51.57885098 49.61470115 53.28989715 49 55 C44.10518485 51.91807935 39.4955887 48.65690259 35.0625 44.9375 C21.47039381 33.6517039 6.6162922 23.8918094 -8 14 C-7.18722884 10.24660186 -5.69832318 7.87404658 -3.4375 4.75 C-2.79683594 3.85796875 -2.15617188 2.9659375 -1.49609375 2.046875 C-0.75552734 1.03367188 -0.75552734 1.03367188 0 0 Z " fill="#FDFEFE" transform="translate(642,190)"/>
<path d="M0 0 C1.42944336 1.96166992 1.42944336 1.96166992 3.08984375 4.73046875 C3.704646 5.75197021 4.31944824 6.77347168 4.95288086 7.82592773 C5.60780518 8.93524658 6.26272949 10.04456543 6.9375 11.1875 C7.60467041 12.30906494 8.27184082 13.43062988 8.95922852 14.58618164 C13.30669759 21.93570238 17.46679659 29.37708321 21.4375 36.9375 C21.90341553 37.82397217 22.36933105 38.71044434 22.84936523 39.6237793 C26 45.73331314 26 45.73331314 26 48 C18.41902924 50.41290492 10.76624381 52.28363577 3 54 C2.55011719 53.08863281 2.10023438 52.17726563 1.63671875 51.23828125 C0.98745201 49.92945283 0.33766611 48.62088189 -0.3125 47.3125 C-0.65990234 46.6122168 -1.00730469 45.91193359 -1.36523438 45.19042969 C-3.5104964 40.8943093 -5.71422977 36.63600099 -7.98046875 32.40234375 C-8.4808667 31.46414795 -8.98126465 30.52595215 -9.49682617 29.55932617 C-10.48874592 27.70549792 -11.487477 25.85529602 -12.4934082 24.0090332 C-12.9493335 23.155271 -13.40525879 22.30150879 -13.875 21.421875 C-14.28492188 20.66487305 -14.69484375 19.90787109 -15.1171875 19.12792969 C-16 17 -16 17 -16 13 C-14.71484375 11.2890625 -14.71484375 11.2890625 -12.9375 9.625 C-12.30328125 9.02816406 -11.6690625 8.43132812 -11.015625 7.81640625 C-10.35046875 7.21699219 -9.6853125 6.61757813 -9 6 C-8.35546875 5.41089844 -7.7109375 4.82179688 -7.046875 4.21484375 C-2.30393026 0 -2.30393026 0 0 0 Z " fill="#FDFEFE" transform="translate(818,352)"/>
<path d="M0 0 C4.66666667 4 9.33333333 8 14 12 C12.47920927 15.50827915 10.4004327 17.95271646 7.8125 20.75 C5.12852598 23.66429753 2.48808832 26.5982942 -0.0859375 29.609375 C-4.93350519 35.16779698 -10.20326658 40.31061935 -15.4375 45.5 C-16.4657298 46.52320139 -17.49372626 47.54663733 -18.52148438 48.5703125 C-21.01164338 51.04957999 -23.50492833 53.52567538 -26 56 C-29.17705651 52.85954025 -32.10569195 49.74350273 -34.8125 46.1875 C-35.41707031 45.39730469 -36.02164062 44.60710938 -36.64453125 43.79296875 C-37.09183594 43.20128906 -37.53914063 42.60960937 -38 42 C-33.89887861 37.09987779 -29.62511697 32.53168454 -25.0625 28.0625 C-20.15837213 23.20294932 -15.42693992 18.30270412 -11 13 C-10.04761455 11.87567521 -9.09441172 10.75204256 -8.140625 9.62890625 C-5.42099182 6.42438058 -2.70897471 3.21353962 0 0 Z " fill="#FEFEFE" transform="translate(534,660)"/>
<path d="M0 0 C3.46832786 0.69366557 5.81418657 1.20770805 8.90966797 2.56298828 C9.64168427 2.88067169 10.37370056 3.1983551 11.12789917 3.52566528 C11.90811432 3.87039886 12.68832947 4.21513245 13.4921875 4.5703125 C14.31518341 4.9296286 15.13817932 5.2889447 15.9861145 5.65914917 C17.73036915 6.42180613 19.47358264 7.18684813 21.21582031 7.95410156 C23.82913788 9.10480585 26.44546879 10.2483958 29.0625 11.390625 C39.10929792 15.78659123 49.08937709 20.30509858 59 25 C56.94921875 35.83984375 56.94921875 35.83984375 56 39 C53 40 53 40 50.79638672 39.15820312 C49.93287598 38.70380859 49.06936523 38.24941406 48.1796875 37.78125 C47.18437012 37.26780029 46.18905273 36.75435059 45.16357422 36.2253418 C44.07834473 35.655979 42.99311523 35.08661621 41.875 34.5 C39.54422024 33.30316283 37.21201967 32.11027906 34.875 30.92578125 C34.25623993 30.61204056 33.63747986 30.29829987 32.99996948 29.97505188 C25.06503328 25.98366337 16.97086519 22.33802804 8.875 18.6875 C8.13151306 18.35186035 7.38802612 18.0162207 6.62200928 17.67041016 C2.41768262 15.77352189 -1.78970224 13.88359561 -6 12 C-4.02 8.04 -2.04 4.08 0 0 Z " fill="#FDFDFD" transform="translate(445,87)"/>
<path d="M0 0 C4.34400824 1.49122671 7.82667811 3.80890474 11.5 6.5 C12.11093506 6.94287354 12.72187012 7.38574707 13.35131836 7.84204102 C24.27556955 15.80192254 34.75688683 24.18186984 45 33 C44.43732422 33.65355469 44.43732422 33.65355469 43.86328125 34.3203125 C40.54140223 38.18607599 37.25357073 42.07657648 34 46 C31.10146485 44.67441171 28.91466342 43.20511656 26.5625 41.0625 C25.85867188 40.43601563 25.15484375 39.80953125 24.4296875 39.1640625 C23.62789063 38.44992188 22.82609375 37.73578125 22 37 C11.79789838 28.01866267 1.01596575 19.95548947 -10 12 C-8.39464713 8.58940597 -6.59481099 6.38207516 -3.875 3.75 C-3.15054687 3.04359375 -2.42609375 2.3371875 -1.6796875 1.609375 C-1.12539063 1.07828125 -0.57109375 0.5471875 0 0 Z " fill="#FDFEFE" transform="translate(477,190)"/>
<path d="M0 0 C17.65693081 6.06956997 33.64656621 17.26641626 48 29 C46.80418558 33.51752115 44.32249607 35.94074342 41.046875 39.05859375 C39 40 39 40 36.20385742 39.24487305 C33.14563646 38.0565877 30.50376369 36.70440456 27.69140625 35.0234375 C26.70333984 34.43836426 25.71527344 33.85329102 24.69726562 33.25048828 C23.66279297 32.63157715 22.62832031 32.01266602 21.5625 31.375 C12.49047964 26.0086273 3.36633001 20.83326645 -6 16 C-5.82774538 9.09415557 -4.41875491 5.32516617 0 0 Z " fill="#FDFDFE" transform="translate(549,134)"/>
<path d="M0 0 C3.97507303 0.79501461 6.49742743 1.53831651 10.04296875 3.23046875 C11.02273682 3.69743164 12.00250488 4.16439453 13.01196289 4.64550781 C14.05989014 5.15436523 15.10781738 5.66322266 16.1875 6.1875 C17.27216553 6.71053711 18.35683105 7.23357422 19.47436523 7.77246094 C31.85157296 13.80458767 43.93744247 20.36418746 56 27 C54.47593976 30.22923826 53.06693859 32.13673484 50.25 34.375 C49.59515625 34.91898438 48.9403125 35.46296875 48.265625 36.0234375 C46 37 46 37 43.3203125 36.5 C38.89932671 34.50275465 34.79405142 32.09836541 30.625 29.625 C21.46567201 24.26973449 12.11186823 19.44453575 2.55712891 14.83447266 C1.58437012 14.36058105 0.61161133 13.88668945 -0.390625 13.3984375 C-1.25719727 12.98255371 -2.12376953 12.56666992 -3.01660156 12.13818359 C-5 11 -5 11 -6 9 C-4.02 6.03 -2.04 3.06 0 0 Z " fill="#FDFDFD" transform="translate(375,133)"/>
<path d="M0 0 C0 24.42 0 48.84 0 74 C-3.3 74.99 -6.6 75.98 -10 77 C-10 52.25 -10 27.5 -10 2 C-3 0 -3 0 0 0 Z " fill="#F2F5FA" transform="translate(340,548)"/>
<path d="M0 0 C2.07989766 7.49978476 2.28645821 16.34018535 1 24 C-1.07006583 27.60251748 -3.28695903 29.23752464 -7 31 C-7.825 31.474375 -8.65 31.94875 -9.5 32.4375 C-13.22317983 33.27521546 -16.16893774 33.37074796 -20 33 C-23.59400074 30.10161231 -23.50800468 26.39281534 -24 22 C-24.1080661 19.01892437 -24.095724 16.04499271 -24.0625 13.0625 C-24.05798828 12.28326172 -24.05347656 11.50402344 -24.04882812 10.70117188 C-24.03716908 8.80074732 -24.01923877 6.90036294 -24 5 C-20.75195713 4.15890901 -17.50127696 3.32849344 -14.25 2.5 C-13.32960938 2.26152344 -12.40921875 2.02304687 -11.4609375 1.77734375 C-10.57148438 1.55175781 -9.68203125 1.32617188 -8.765625 1.09375 C-7.94868164 0.88427734 -7.13173828 0.67480469 -6.29003906 0.45898438 C-4 0 -4 0 0 0 Z " fill="#0B53A4" transform="translate(436,401)"/>
<path d="M0 0 C2.61670451 2.31439851 3.84741769 4.50238611 5.19140625 7.7109375 C5.57876953 8.62617187 5.96613281 9.54140625 6.36523438 10.484375 C6.76033203 11.43828125 7.15542969 12.3921875 7.5625 13.375 C7.96146484 14.32117188 8.36042969 15.26734375 8.77148438 16.2421875 C9.85759931 18.82420365 10.93553034 21.40898937 12 24 C12.3724585 24.8657666 12.74491699 25.7315332 13.12866211 26.62353516 C14 29 14 29 14 32 C10.2318169 33.34090793 6.46004479 34.6714179 2.6875 36 C1.61564453 36.3815625 0.54378906 36.763125 -0.56054688 37.15625 C-1.58857422 37.5171875 -2.61660156 37.878125 -3.67578125 38.25 C-4.62364502 38.58515625 -5.57150879 38.9203125 -6.5480957 39.265625 C-9 40 -9 40 -12 40 C-11.37579988 35.5224667 -10.25636939 31.50510294 -8.75 27.24609375 C-8.53182617 26.6227565 -8.31365234 25.99941925 -8.08886719 25.35719299 C-7.39718036 23.38230773 -6.69918176 21.40974304 -6 19.4375 C-5.30137002 17.46150617 -4.60424628 15.48503132 -3.91113281 13.50709534 C-3.28290726 11.71496769 -2.64941071 9.92469034 -2.015625 8.13452148 C-1.13606446 5.41993548 -0.48370717 2.80793327 0 0 Z " fill="#0A53A4" transform="translate(281,575)"/>
<path d="M0 0 C0.99 0.33 1.98 0.66 3 1 C2.51789063 1.39832031 2.03578125 1.79664063 1.5390625 2.20703125 C0.59160156 3.00173828 0.59160156 3.00173828 -0.375 3.8125 C-1.00148437 4.33457031 -1.62796875 4.85664063 -2.2734375 5.39453125 C-4.2221048 7.08225739 -4.2221048 7.08225739 -6 10 C-6.33 8.68 -6.66 7.36 -7 6 C-5.90716423 4.96704564 -4.80029421 3.94892165 -3.6875 2.9375 C-3.07261719 2.36902344 -2.45773438 1.80054688 -1.82421875 1.21484375 C-0.92123047 0.61349609 -0.92123047 0.61349609 0 0 Z " fill="#DBE6F1" transform="translate(160,473)"/>
</svg>
