<svg width="40" height="39" viewBox="0 0 40 39" fill="none" xmlns="http://www.w3.org/2000/svg">
<circle cx="19.9976" cy="19.3999" r="18.8235" fill="#0153AB" stroke="#0153AB" stroke-width="0.752941"/>
<mask id="mask0_356_5594" style="mask-type:alpha" maskUnits="userSpaceOnUse" x="8" y="8" width="24" height="24">
<rect x="8.80005" y="8.19876" width="23.04" height="23.04" fill="#D9D9D9"/>
</mask>
<g mask="url(#mask0_356_5594)">
<path d="M29.92 13.9581V25.4781C29.92 26.0061 29.732 26.4581 29.356 26.8341C28.98 27.2101 28.528 27.3981 28 27.3981H12.64C12.112 27.3981 11.66 27.2101 11.284 26.8341C10.908 26.4581 10.72 26.0061 10.72 25.4781V13.9581C10.72 13.4301 10.908 12.9781 11.284 12.6021C11.66 12.2261 12.112 12.0381 12.64 12.0381H28C28.528 12.0381 28.98 12.2261 29.356 12.6021C29.732 12.9781 29.92 13.4301 29.92 13.9581ZM12.64 17.8012H28V13.9581H12.64V17.8012ZM12.64 21.8006V25.4781H28L28 21.8006H12.64Z" fill="white"/>
</g>
</svg>
