<svg width="65" height="65" viewBox="0 0 65 65" fill="none" xmlns="http://www.w3.org/2000/svg">
<path d="M55.5093 9.6787C49.4764 3.62623 41.4324 0.307129 32.9004 0.307129C24.3488 0.307129 16.3049 3.62623 10.272 9.6787C4.21949 15.7116 0.900391 23.7556 0.900391 32.3071C0.900391 40.8587 4.21949 48.8831 10.272 54.9356C16.3049 60.9685 24.3488 64.3071 32.9004 64.3071C41.4519 64.3071 49.4763 60.988 55.5288 54.9356C61.5618 48.9026 64.9004 40.8587 64.9004 32.3071C64.8809 23.7556 61.5618 15.7116 55.5093 9.6787Z" fill="#E94F20"/>
<path d="M33.9563 37.2093L25.8451 45.3205C25.3323 45.8333 24.6797 46.0897 23.8872 46.0897C23.0947 46.0897 22.4421 45.8333 21.9293 45.3205C21.4165 44.8077 21.1602 44.1551 21.1602 43.3626C21.1602 42.5701 21.4165 41.9175 21.9293 41.4047L30.0405 33.2936L21.9293 25.2523C21.4165 24.7395 21.1602 24.0869 21.1602 23.2944C21.1602 22.5019 21.4165 21.8493 21.9293 21.3365C22.4421 20.8238 23.0947 20.5674 23.8872 20.5674C24.6797 20.5674 25.3323 20.8238 25.8451 21.3365L33.9563 29.4477L41.9975 21.3365C42.5103 20.8238 43.1629 20.5674 43.9554 20.5674C44.7479 20.5674 45.4005 20.8238 45.9133 21.3365C46.4727 21.8959 46.7523 22.5602 46.7523 23.3294C46.7523 24.0985 46.4727 24.7395 45.9133 25.2523L37.8021 33.2936L45.9133 41.4047C46.426 41.9175 46.6824 42.5701 46.6824 43.3626C46.6824 44.1551 46.426 44.8077 45.9133 45.3205C45.3539 45.8799 44.6896 46.1596 43.9204 46.1596C43.1513 46.1596 42.5103 45.8799 41.9975 45.3205L33.9563 37.2093Z" fill="white"/>
</svg>
