<svg width="23" height="8" viewBox="0 0 23 8" fill="none" xmlns="http://www.w3.org/2000/svg">
<path d="M22.3818 2.21228C22.2819 1.9277 22.0962 1.68114 21.8502 1.50663C21.6042 1.33213 21.3101 1.2383 21.0086 1.23809H20.9946C20.7984 1.23798 20.6043 1.27762 20.4239 1.35462C20.2436 1.43162 20.0807 1.54438 19.9451 1.68609C19.8097 1.54434 19.647 1.43154 19.4668 1.35454C19.2865 1.27753 19.0926 1.23792 18.8966 1.23809H18.8834C18.5351 1.2377 18.1984 1.36302 17.9352 1.59101V1.47968C17.9314 1.42567 17.9072 1.37511 17.8676 1.33818C17.828 1.30126 17.7759 1.28071 17.7218 1.28069H16.7486C16.6916 1.28074 16.6369 1.30341 16.5965 1.34372C16.5562 1.38403 16.5334 1.4387 16.5333 1.49573V6.78113C16.5332 6.80947 16.5387 6.83754 16.5495 6.86375C16.5603 6.88996 16.5761 6.91379 16.5961 6.93387C16.6161 6.95394 16.6399 6.96987 16.666 6.98074C16.6922 6.99161 16.7203 6.99721 16.7486 6.99721H17.7218C17.7735 6.99723 17.8236 6.97847 17.8626 6.94442C17.9016 6.91036 17.9269 6.86331 17.9339 6.812V3.01793C17.9339 3.00517 17.9339 2.99241 17.9358 2.97965C17.9425 2.89389 17.9802 2.81352 18.0419 2.7536C18.1036 2.69367 18.1851 2.65829 18.271 2.6541H18.4509C18.5259 2.659 18.5977 2.68664 18.6566 2.73333C18.6988 2.76764 18.7326 2.8111 18.7555 2.86041C18.7784 2.90971 18.7897 2.96358 18.7887 3.01793L18.7918 6.79327C18.792 6.85045 18.8148 6.90523 18.8554 6.94559C18.8959 6.98594 18.9507 7.00858 19.0079 7.00852H19.9811C20.0363 7.00835 20.0894 6.98685 20.1291 6.9485C20.1689 6.91016 20.1923 6.85793 20.1945 6.80274V3.01217C20.1933 2.95215 20.2072 2.8928 20.235 2.83958C20.2627 2.78636 20.3034 2.74097 20.3533 2.7076C20.4073 2.67326 20.469 2.65269 20.5328 2.64772H20.7122C20.8048 2.65278 20.8917 2.69367 20.9547 2.76174C21.0176 2.82981 21.0515 2.9197 21.0493 3.01237L21.0532 6.78236C21.0531 6.81068 21.0586 6.83874 21.0693 6.86494C21.0801 6.89114 21.0959 6.91496 21.1159 6.93503C21.1359 6.9551 21.1596 6.97104 21.1858 6.98192C21.2119 6.9928 21.2399 6.99841 21.2683 6.99844H22.2412C22.2696 6.99841 22.2976 6.9928 22.3238 6.98193C22.35 6.97106 22.3738 6.95513 22.3938 6.93507C22.4138 6.915 22.4297 6.89119 22.4405 6.86499C22.4513 6.83879 22.4569 6.81071 22.4569 6.78236V2.72839C22.4652 2.55376 22.4401 2.37915 22.383 2.21392" fill="#00B2F1"/>
<path d="M15.7925 1.29468H15.2369V0.389225C15.2377 0.359992 15.2319 0.330953 15.2198 0.304329C15.2077 0.277705 15.1897 0.254201 15.1671 0.235614C15.1445 0.217027 15.118 0.203849 15.0895 0.197089C15.0611 0.190329 15.0314 0.190165 15.0029 0.19661C14.3856 0.365971 14.509 1.2208 13.3834 1.29386H13.2731C13.2572 1.29405 13.2414 1.29584 13.226 1.29921C13.1784 1.31004 13.1359 1.33671 13.1055 1.37485C13.0751 1.41299 13.0586 1.46034 13.0587 1.50911V2.48145C13.0585 2.50977 13.064 2.53783 13.0748 2.56403C13.0855 2.59022 13.1014 2.61404 13.1213 2.63411C13.1413 2.65418 13.1651 2.67012 13.1912 2.681C13.2173 2.69188 13.2454 2.69749 13.2737 2.69752H13.8612V6.82373C13.8612 6.85171 13.8666 6.87943 13.8773 6.9053C13.888 6.93116 13.9037 6.95467 13.9235 6.97445C13.9433 6.99424 13.9668 7.00993 13.9926 7.02061C14.0185 7.0313 14.0462 7.03677 14.0742 7.03672H15.036C15.064 7.03669 15.0916 7.03115 15.1174 7.02043C15.1432 7.00971 15.1666 6.99401 15.1863 6.97422C15.206 6.95444 15.2216 6.93097 15.2322 6.90514C15.2429 6.87932 15.2483 6.85165 15.2482 6.82373V2.69752H15.7933C15.8216 2.69747 15.8497 2.69183 15.8758 2.68094C15.9019 2.67005 15.9256 2.65411 15.9456 2.63404C15.9655 2.61397 15.9813 2.59016 15.9921 2.56398C16.0028 2.53779 16.0083 2.50975 16.0082 2.48145V1.50911C16.0083 1.48085 16.0028 1.45286 15.992 1.42674C15.9812 1.40061 15.9654 1.37687 15.9455 1.35687C15.9255 1.33687 15.9018 1.32101 15.8757 1.3102C15.8496 1.29938 15.8216 1.29383 15.7933 1.29386" fill="#00B2F1"/>
<path d="M12.2907 1.29488H11.3179C11.2896 1.29483 11.2616 1.30035 11.2354 1.31115C11.2093 1.32194 11.1855 1.33779 11.1655 1.35778C11.1454 1.37777 11.1295 1.40152 11.1187 1.42766C11.1079 1.45381 11.1023 1.48183 11.1023 1.51013V3.52189C11.1014 3.58152 11.0772 3.63846 11.0349 3.68049C10.9926 3.72253 10.9355 3.74634 10.8759 3.74681H10.467C10.4064 3.7467 10.3483 3.72255 10.3055 3.67965C10.2626 3.63674 10.2386 3.5786 10.2386 3.51798L10.2351 1.50972C10.2351 1.48145 10.2296 1.45346 10.2188 1.42733C10.208 1.4012 10.1922 1.37746 10.1722 1.35747C10.1523 1.33747 10.1285 1.32161 10.1024 1.3108C10.0763 1.29999 10.0483 1.29444 10.02 1.29447H9.04626C9.01802 1.29447 8.99005 1.30004 8.96395 1.31086C8.93786 1.32168 8.91416 1.33754 8.8942 1.35754C8.87425 1.37753 8.85843 1.40126 8.84766 1.42738C8.83689 1.45349 8.83137 1.48147 8.83142 1.50972V3.71533C8.82383 3.90584 8.85576 4.09586 8.92521 4.27342C8.99466 4.45098 9.10012 4.61223 9.23496 4.74703C9.3698 4.88183 9.53108 4.98725 9.70866 5.05665C9.88624 5.12605 10.0763 5.15792 10.2668 5.15027C10.2668 5.15027 10.8961 5.15027 10.9154 5.15377C10.9713 5.15898 11.0233 5.18477 11.0612 5.22613C11.0992 5.26749 11.1204 5.32148 11.1208 5.3776C11.1211 5.43373 11.1007 5.48801 11.0633 5.52988C11.0259 5.57176 10.9743 5.59826 10.9185 5.60423C10.9136 5.60423 10.9088 5.60609 10.9027 5.60691L9.47924 5.61226C9.45094 5.61223 9.42292 5.61778 9.39677 5.62858C9.37062 5.63938 9.34685 5.65523 9.32683 5.67522C9.3068 5.69521 9.29091 5.71894 9.28005 5.74507C9.2692 5.7712 9.2636 5.79922 9.26357 5.82751V6.80067C9.26379 6.85776 9.2866 6.91245 9.32701 6.95278C9.36741 6.99312 9.42214 7.01581 9.47924 7.01592H11.07C11.2605 7.02361 11.4506 6.99174 11.6283 6.92233C11.8059 6.85292 11.9673 6.74747 12.1021 6.61263C12.237 6.47779 12.3425 6.31647 12.412 6.13885C12.4814 5.96123 12.5134 5.77114 12.5057 5.58057V1.51013C12.5058 1.48185 12.5002 1.45383 12.4895 1.42769C12.4787 1.40155 12.4628 1.3778 12.4428 1.35781C12.4228 1.33781 12.399 1.32195 12.3729 1.31115C12.3468 1.30036 12.319 1.29483 12.2907 1.29488Z" fill="#0C2756"/>
<path d="M2.95584 1.2953H0.828425C0.800718 1.29525 0.773273 1.30066 0.747659 1.31123C0.722045 1.32179 0.698767 1.3373 0.679156 1.35688C0.659545 1.37645 0.643985 1.3997 0.633369 1.42529C0.622754 1.45089 0.617291 1.47832 0.617291 1.50603V6.7941C0.615581 6.84862 0.635159 6.90166 0.67188 6.94199C0.708602 6.98233 0.759581 7.00678 0.81402 7.01018H1.8057C1.83412 7.01031 1.86229 7.00482 1.88858 6.99401C1.91487 6.9832 1.93876 6.96729 1.95887 6.9472C1.97897 6.92711 1.9949 6.90324 2.00574 6.87697C2.01657 6.85069 2.02209 6.82252 2.02198 6.7941L2.02548 5.31491H2.95645C3.13246 5.32348 3.30831 5.29512 3.4727 5.23166C3.63709 5.1682 3.78638 5.07105 3.91098 4.94645C4.03559 4.82185 4.13274 4.67255 4.19619 4.50816C4.25965 4.34377 4.28801 4.16792 4.27945 3.99192V2.61912C4.2879 2.4431 4.25948 2.26725 4.196 2.10285C4.13251 1.93845 4.03538 1.78914 3.91081 1.66448C3.78625 1.53982 3.63701 1.44256 3.47266 1.37895C3.30831 1.31534 3.13187 1.28699 2.95584 1.2953ZM2.87105 3.67871C2.87094 3.73915 2.84689 3.79708 2.80415 3.83982C2.76141 3.88256 2.70348 3.90661 2.64304 3.90672H2.02569V2.70288H2.64304C2.67299 2.70285 2.70265 2.70873 2.73033 2.72018C2.75801 2.73163 2.78315 2.74842 2.80433 2.7696C2.82551 2.79078 2.8423 2.81592 2.85375 2.8436C2.8652 2.87128 2.87108 2.90094 2.87105 2.93089V3.67871Z" fill="#0C2756"/>
<path d="M6.75422 1.30023H5.40426C5.34883 1.29845 5.29494 1.31868 5.25438 1.35651C5.21381 1.39433 5.18987 1.44668 5.18778 1.5021V2.41476C5.18992 2.47355 5.21531 2.52909 5.25837 2.56918C5.30143 2.60927 5.35864 2.63063 5.41743 2.62857H6.70318C6.75424 2.63528 6.80141 2.65943 6.8367 2.69694C6.87199 2.73444 6.89323 2.78299 6.89683 2.83436V2.95968C6.89318 3.00973 6.87236 3.05698 6.83791 3.09346C6.80345 3.12994 6.75747 3.15341 6.70771 3.15991H6.07183C5.22482 3.15991 4.62104 3.72232 4.62104 4.51213V5.64395C4.61095 5.82448 4.63934 6.00509 4.70434 6.17382C4.76933 6.34254 4.86945 6.49553 4.99805 6.62263C5.12665 6.74973 5.2808 6.84805 5.45027 6.91106C5.61975 6.97408 5.80068 7.00035 5.98108 6.98814H7.7459C7.89287 6.99303 8.03578 6.93946 8.14332 6.83917C8.25086 6.73888 8.31426 6.60005 8.31963 6.4531V2.7611C8.31963 1.86531 7.85723 1.30023 6.75422 1.30023ZM6.90959 5.51451C6.90915 5.52648 6.9077 5.53839 6.90526 5.55011C6.90314 5.56085 6.90032 5.57143 6.89683 5.5818C6.88002 5.62557 6.85015 5.66311 6.81128 5.68933C6.7724 5.71554 6.7264 5.72915 6.67952 5.72832H6.27474C6.21603 5.73021 6.15895 5.70878 6.116 5.66872C6.07304 5.62865 6.04769 5.57321 6.04549 5.51451V4.68128C6.0479 4.62273 6.07334 4.5675 6.11628 4.52761C6.15921 4.48772 6.21616 4.4664 6.27474 4.4683H6.67952C6.73839 4.46635 6.79564 4.48779 6.83876 4.52793C6.88187 4.56808 6.90733 4.62365 6.90959 4.68252V5.51451Z" fill="#0C2756"/>
</svg>
