<svg width="148" height="154" viewBox="0 0 148 154" fill="none" xmlns="http://www.w3.org/2000/svg">
<g clip-path="url(#clip0_76_8702)">
<path fill-rule="evenodd" clip-rule="evenodd" d="M73.5792 140.239C106.77 140.239 133.676 113.333 133.676 80.1422C133.676 46.9517 106.77 20.0454 73.5792 20.0454C40.3887 20.0454 13.4824 46.9517 13.4824 80.1422C13.4824 113.333 40.3887 140.239 73.5792 140.239Z" stroke="#3AD29F" stroke-width="0.404692" stroke-dasharray="2.43 2.43"/>
<path fill-rule="evenodd" clip-rule="evenodd" d="M73.579 152.987C113.81 152.987 146.424 120.373 146.424 80.1425C146.424 39.9115 113.81 7.29785 73.579 7.29785C33.348 7.29785 0.734375 39.9115 0.734375 80.1425C0.734375 120.373 33.348 152.987 73.579 152.987Z" stroke="#3AD29F" stroke-width="0.404692" stroke-dasharray="2.43 2.43"/>
<path d="M122.333 103.349C122.335 94.8681 115.883 87.7787 107.439 86.9847C98.9955 86.1906 91.3346 91.9528 89.7555 100.286L39.252 98.9156L39.8064 107.592C39.8064 107.592 32.6049 124.209 70.4537 128.636V145.431H114.209V117.507C119.237 114.563 122.328 109.175 122.333 103.349Z" fill="url(#paint0_linear_76_8702)"/>
<path d="M41.5402 107.956C41.5402 107.956 34.6442 123.869 70.8905 128.114V144.205H112.794V101.593L41.002 99.646L41.5402 107.956Z" fill="#FFCBB4"/>
<path d="M62.4828 41.5528C60.2082 45.1421 55.4619 46.2206 51.8596 43.9668L29.3607 29.1409C25.7715 26.8663 24.6929 22.1201 26.9467 18.5177C29.221 14.9334 33.9612 13.8554 37.5618 16.1037L60.0607 30.9297C63.6528 33.2016 64.7351 37.9484 62.4828 41.5528Z" fill="url(#paint1_linear_76_8702)"/>
<path d="M61.2367 40.743C59.1225 44.0792 54.7108 45.0818 51.3622 42.987L30.4417 29.1951C27.1054 27.0808 26.1028 22.6691 28.1976 19.3206C30.3119 15.9843 34.7236 14.9817 38.0721 17.0766L58.9887 30.8604C62.3313 32.9736 63.3363 37.3917 61.2367 40.743Z" fill="#FFCBB4"/>
<path d="M104.84 119.628C113.531 119.628 120.576 112.583 120.576 103.892C120.576 95.2007 113.531 88.1553 104.84 88.1553C96.149 88.1553 89.1035 95.2007 89.1035 103.892C89.1035 112.583 96.149 119.628 104.84 119.628Z" fill="#FFCBB4"/>
<path d="M102.008 0.100098H41.7248C40.3559 0.100098 39.2461 1.20987 39.2461 2.57884V115.379C39.2461 116.748 40.3559 117.857 41.7248 117.857H102.008C103.377 117.857 104.487 116.748 104.487 115.379V2.57884C104.487 1.20987 103.377 0.100098 102.008 0.100098Z" fill="url(#paint2_linear_76_8702)"/>
<path d="M100.841 1.69238H42.885C41.3607 1.69238 40.125 2.92808 40.125 4.45239V113.509C40.125 115.033 41.3607 116.269 42.885 116.269H100.841C102.365 116.269 103.601 115.033 103.601 113.509V4.45239C103.601 2.92808 102.365 1.69238 100.841 1.69238Z" fill="white"/>
<path d="M87.8112 4.56543C87.4318 7.07615 85.2776 8.93474 82.7384 8.94218H60.8162C58.2777 8.93374 56.1247 7.0754 55.7454 4.56543H44.1307C43.4912 4.56543 42.8777 4.81856 42.4253 5.27057C41.9729 5.72258 41.7188 6.33587 41.7188 6.97537V110.981C41.7188 111.621 41.9719 112.234 42.4239 112.687C42.8759 113.139 43.4892 113.393 44.1287 113.393H99.5999C100.239 113.393 100.853 113.14 101.305 112.688C101.758 112.236 102.012 111.623 102.012 110.983V6.9774C102.012 6.33789 101.759 5.72439 101.307 5.272C100.855 4.81961 100.241 4.56543 99.6019 4.56543H87.8112Z" fill="#E4E5ED"/>
<path d="M78.6222 5.93555H65.2856C65.062 5.93555 64.8809 6.11673 64.8809 6.34024V6.41511C64.8809 6.63861 65.062 6.8198 65.2856 6.8198H78.6222C78.8457 6.8198 79.0269 6.63861 79.0269 6.41511V6.34024C79.0269 6.11673 78.8457 5.93555 78.6222 5.93555Z" fill="#DBDBDB"/>
<path d="M82.0303 6.94883C82.3944 6.94883 82.6895 6.65368 82.6895 6.2896C82.6895 5.92552 82.3944 5.63037 82.0303 5.63037C81.6662 5.63037 81.3711 5.92552 81.3711 6.2896C81.3711 6.65368 81.6662 6.94883 82.0303 6.94883Z" fill="#DBDBDB"/>
<path d="M115.012 106.668C110.445 107.724 107.31 104.745 106.254 100.181L95.7603 61.2147C94.7162 56.6321 97.5682 52.0663 102.144 50.9942C106.727 49.9501 111.293 52.802 112.365 57.3782L120.928 97.3497C121.984 101.917 119.576 105.611 115.012 106.668Z" fill="url(#paint3_linear_76_8702)"/>
<path d="M111.188 58.3321C110.297 54.4787 106.452 52.0767 102.598 52.967C98.7449 53.8573 96.3429 57.7029 97.2332 61.5563L106.883 103.319C107.773 107.172 111.618 109.575 115.472 108.684C119.325 107.794 121.727 103.948 120.837 100.095L111.188 58.3321Z" fill="#FFCBB4"/>
<path d="M120.51 138.94H60.6152V152.902H120.51V138.94Z" fill="url(#paint4_linear_76_8702)"/>
<path d="M118.891 140.559H62.2344V151.485H118.891V140.559Z" fill="#0153AB"/>
<path d="M53.7505 83.3531C51.5036 86.8997 46.8141 87.9656 43.2548 85.7387L28.1659 75.9755C24.6193 73.7286 23.5534 69.0391 25.7802 65.4798C28.0272 61.9333 32.7167 60.8673 36.2759 63.0942L51.3649 72.8574C54.9115 75.1043 55.9774 79.7938 53.7505 83.3531Z" fill="url(#paint5_linear_76_8702)"/>
<path d="M49.96 104.019C47.6931 107.598 42.9608 108.674 39.3692 106.427L30.0229 99.6122C26.4437 97.3452 25.3678 92.613 27.6149 89.0214C29.8819 85.4423 34.6141 84.3663 38.2057 86.6135L47.5521 93.4305C51.13 95.6974 52.2058 100.428 49.96 104.019Z" fill="url(#paint6_linear_76_8702)"/>
<g opacity="0.5">
<path d="M71.865 77.1798C81.9161 77.1798 90.064 69.0318 90.064 58.9808C90.064 48.9297 81.9161 40.7817 71.865 40.7817C61.814 40.7817 53.666 48.9297 53.666 58.9808C53.666 69.0318 61.814 77.1798 71.865 77.1798Z" fill="url(#paint7_linear_76_8702)"/>
</g>
<path d="M71.863 76.1098C81.3229 76.1098 88.9916 68.441 88.9916 58.9811C88.9916 49.5213 81.3229 41.8525 71.863 41.8525C62.4031 41.8525 54.7344 49.5213 54.7344 58.9811C54.7344 68.441 62.4031 76.1098 71.863 76.1098Z" fill="#55A36F"/>
<path d="M64.429 56.6941L70.8515 62.5823L79.951 49.2012L83.1642 51.8782L70.8515 67.9364L61.752 57.7665L64.429 56.6941Z" fill="white"/>
<path d="M49.2071 103.511C47.0928 106.847 42.6811 107.85 39.3326 105.755L30.6155 99.4094C27.2792 97.2951 26.2766 92.8835 28.3715 89.5349C30.4858 86.1987 34.8974 85.1961 38.246 87.2909L46.961 93.6486C50.2906 95.7617 51.2933 100.164 49.2071 103.511Z" fill="#FFCBB4"/>
<path d="M52.921 82.8173C50.8067 86.1535 46.395 87.1561 43.0465 85.0613L28.8499 75.8748C25.5136 73.7605 24.511 69.3488 26.6059 66.0003C28.7201 62.664 33.1318 61.6614 36.4803 63.7562L50.677 72.9428C54.0132 75.057 55.0158 79.4687 52.921 82.8173Z" fill="#FFCBB4"/>
<path d="M57.6499 62.785C55.3919 66.3471 50.6813 67.4174 47.1057 65.1807L27.984 52.7304C24.4218 50.4723 23.3515 45.7617 25.5882 42.1861C27.8462 38.624 32.5569 37.5537 36.1324 39.7903L55.2542 52.2407C58.8163 54.4987 59.8866 59.2094 57.6499 62.785Z" fill="url(#paint8_linear_76_8702)"/>
<path d="M56.634 62.1377C54.5197 65.4739 50.108 66.4765 46.7595 64.3817L28.8499 52.7205C25.5136 50.6062 24.511 46.1945 26.6059 42.846C28.7201 39.5097 33.1318 38.5071 36.4803 40.6019L54.388 52.2632C57.725 54.3768 58.7285 58.7886 56.634 62.1377Z" fill="#FFCBB4"/>
</g>
<defs>
<linearGradient id="paint0_linear_76_8702" x1="80.7957" y1="145.441" x2="80.7957" y2="86.9145" gradientUnits="userSpaceOnUse">
<stop stop-color="#808080" stop-opacity="0.25"/>
<stop offset="0.54" stop-color="#808080" stop-opacity="0.12"/>
<stop offset="1" stop-color="#808080" stop-opacity="0.1"/>
</linearGradient>
<linearGradient id="paint1_linear_76_8702" x1="44.7127" y1="45.1465" x2="44.7127" y2="14.9281" gradientUnits="userSpaceOnUse">
<stop stop-color="#808080" stop-opacity="0.25"/>
<stop offset="0.54" stop-color="#808080" stop-opacity="0.12"/>
<stop offset="1" stop-color="#808080" stop-opacity="0.1"/>
</linearGradient>
<linearGradient id="paint2_linear_76_8702" x1="71.8663" y1="117.855" x2="71.8663" y2="0.0980762" gradientUnits="userSpaceOnUse">
<stop stop-color="#808080" stop-opacity="0.25"/>
<stop offset="0.54" stop-color="#808080" stop-opacity="0.12"/>
<stop offset="1" stop-color="#808080" stop-opacity="0.1"/>
</linearGradient>
<linearGradient id="paint3_linear_76_8702" x1="108.358" y1="106.878" x2="108.358" y2="50.7757" gradientUnits="userSpaceOnUse">
<stop stop-color="#808080" stop-opacity="0.25"/>
<stop offset="0.54" stop-color="#808080" stop-opacity="0.12"/>
<stop offset="1" stop-color="#808080" stop-opacity="0.1"/>
</linearGradient>
<linearGradient id="paint4_linear_76_8702" x1="90.5665" y1="152.898" x2="90.5665" y2="138.936" gradientUnits="userSpaceOnUse">
<stop stop-color="#808080" stop-opacity="0.25"/>
<stop offset="0.54" stop-color="#808080" stop-opacity="0.12"/>
<stop offset="1" stop-color="#808080" stop-opacity="0.1"/>
</linearGradient>
<linearGradient id="paint5_linear_76_8702" x1="39.7623" y1="86.9022" x2="39.7623" y2="61.9327" gradientUnits="userSpaceOnUse">
<stop stop-color="#808080" stop-opacity="0.25"/>
<stop offset="0.54" stop-color="#808080" stop-opacity="0.12"/>
<stop offset="1" stop-color="#808080" stop-opacity="0.1"/>
</linearGradient>
<linearGradient id="paint6_linear_76_8702" x1="38.7885" y1="107.601" x2="38.7885" y2="85.4378" gradientUnits="userSpaceOnUse">
<stop stop-color="#808080" stop-opacity="0.25"/>
<stop offset="0.54" stop-color="#808080" stop-opacity="0.12"/>
<stop offset="1" stop-color="#808080" stop-opacity="0.1"/>
</linearGradient>
<linearGradient id="paint7_linear_76_8702" x1="71.865" y1="77.1798" x2="71.865" y2="40.7797" gradientUnits="userSpaceOnUse">
<stop stop-color="#808080" stop-opacity="0.25"/>
<stop offset="0.54" stop-color="#808080" stop-opacity="0.12"/>
<stop offset="1" stop-color="#808080" stop-opacity="0.1"/>
</linearGradient>
<linearGradient id="paint8_linear_76_8702" x1="41.618" y1="66.3564" x2="41.618" y2="38.6289" gradientUnits="userSpaceOnUse">
<stop stop-color="#808080" stop-opacity="0.25"/>
<stop offset="0.54" stop-color="#808080" stop-opacity="0.12"/>
<stop offset="1" stop-color="#808080" stop-opacity="0.1"/>
</linearGradient>
<clipPath id="clip0_76_8702">
<rect width="147.008" height="153.6" fill="white" transform="translate(0.0742188 0.100098)"/>
</clipPath>
</defs>
</svg>
