<svg width="72" height="72" viewBox="0 0 72 72" fill="none" xmlns="http://www.w3.org/2000/svg">
<mask id="mask0_177_29167" style="mask-type:alpha" maskUnits="userSpaceOnUse" x="0" y="0" width="72" height="72">
<rect width="72" height="72" fill="#D9D9D9"/>
</mask>
<g mask="url(#mask0_177_29167)">
<path d="M39.825 52.5H47.025V52.275L34.65 39.15L34.725 38.925H35.475C38.175 38.925 40.4125 38.1 42.1875 36.45C43.9625 34.8 45.05 32.875 45.45 30.675H48.45V27.15H45.375C45.225 26.4 44.9625 25.6875 44.5875 25.0125C44.2125 24.3375 43.75 23.675 43.2 23.025H48.45V19.5H23.55V23.775H35.25C36.55 23.775 37.6125 24.1 38.4375 24.75C39.2625 25.4 39.825 26.2 40.125 27.15H23.55V30.675H40.2C39.9 31.675 39.325 32.5375 38.475 33.2625C37.625 33.9875 36.475 34.35 35.025 34.35H27.525V39.15L39.825 52.5ZM36 66C31.85 66 27.95 65.2125 24.3 63.6375C20.65 62.0625 17.475 59.925 14.775 57.225C12.075 54.525 9.9375 51.35 8.3625 47.7C6.7875 44.05 6 40.15 6 36C6 31.85 6.7875 27.95 8.3625 24.3C9.9375 20.65 12.075 17.475 14.775 14.775C17.475 12.075 20.65 9.9375 24.3 8.3625C27.95 6.7875 31.85 6 36 6C40.15 6 44.05 6.7875 47.7 8.3625C51.35 9.9375 54.525 12.075 57.225 14.775C59.925 17.475 62.0625 20.65 63.6375 24.3C65.2125 27.95 66 31.85 66 36C66 40.15 65.2125 44.05 63.6375 47.7C62.0625 51.35 59.925 54.525 57.225 57.225C54.525 59.925 51.35 62.0625 47.7 63.6375C44.05 65.2125 40.15 66 36 66ZM36 60C42.7 60 48.375 57.675 53.025 53.025C57.675 48.375 60 42.7 60 36C60 29.3 57.675 23.625 53.025 18.975C48.375 14.325 42.7 12 36 12C29.3 12 23.625 14.325 18.975 18.975C14.325 23.625 12 29.3 12 36C12 42.7 14.325 48.375 18.975 53.025C23.625 57.675 29.3 60 36 60Z" fill="#0153AB"/>
</g>
</svg>
