<svg width="62" height="62" viewBox="0 0 62 62" fill="none" xmlns="http://www.w3.org/2000/svg">
<path d="M7.15385 0C6.52141 0 5.91487 0.251235 5.46767 0.698438C5.02047 1.14564 4.76923 1.75218 4.76923 2.38462V57.2308H2.38462C1.75218 57.2308 1.14564 57.482 0.698438 57.9292C0.251235 58.3764 0 58.9829 0 59.6154C0 60.2478 0.251235 60.8544 0.698438 61.3016C1.14564 61.7488 1.75218 62 2.38462 62H35.7692C36.4017 62 37.0082 61.7488 37.4554 61.3016C37.9026 60.8544 38.1538 60.2478 38.1538 59.6154C38.1538 58.9829 37.9026 58.3764 37.4554 57.9292C37.0082 57.482 36.4017 57.2308 35.7692 57.2308H28.6154V43.3952L60.9317 21.6809C61.1916 21.5062 61.4146 21.282 61.5879 21.0211C61.7612 20.7602 61.8814 20.4677 61.9416 20.1604C62.0018 19.853 62.0009 19.5368 61.9389 19.2298C61.8769 18.9228 61.7551 18.631 61.5803 18.3711L60.2497 16.3918C59.8969 15.8682 59.3508 15.5058 58.7312 15.3842C58.1117 15.2627 57.4691 15.3918 56.9446 15.7432L28.6154 34.7677V4.76923H31C31.6324 4.76923 32.239 4.518 32.6862 4.07079C33.1334 3.62359 33.3846 3.01705 33.3846 2.38462C33.3846 1.75218 33.1334 1.14564 32.6862 0.698438C32.239 0.251235 31.6324 0 31 0H7.15385ZM9.53846 11.9231C9.53846 11.2906 9.7897 10.6841 10.2369 10.2369C10.6841 9.7897 11.2906 9.53846 11.9231 9.53846H21.4615C22.094 9.53846 22.7005 9.7897 23.1477 10.2369C23.5949 10.6841 23.8462 11.2906 23.8462 11.9231V31C23.8462 31.6324 23.5949 32.239 23.1477 32.6862C22.7005 33.1334 22.094 33.3846 21.4615 33.3846H11.9231C11.2906 33.3846 10.6841 33.1334 10.2369 32.6862C9.7897 32.239 9.53846 31.6324 9.53846 31V11.9231Z" fill="#0153AB"/>
</svg>
