<svg width="45" height="46" viewBox="0 0 45 46" fill="none" xmlns="http://www.w3.org/2000/svg">
<mask id="mask0_336_13948" style="mask-type:alpha" maskUnits="userSpaceOnUse" x="0" y="0" width="45" height="46">
<rect y="0.5" width="45" height="45" fill="#D9D9D9"/>
</mask>
<g mask="url(#mask0_336_13948)">
<path d="M22.5 32.375C23.0312 32.375 23.4766 32.1953 23.8359 31.8359C24.1953 31.4766 24.375 31.0312 24.375 30.5C24.375 29.9688 24.1953 29.5234 23.8359 29.1641C23.4766 28.8047 23.0312 28.625 22.5 28.625C21.9688 28.625 21.5234 28.8047 21.1641 29.1641C20.8047 29.5234 20.625 29.9688 20.625 30.5C20.625 31.0312 20.8047 31.4766 21.1641 31.8359C21.5234 32.1953 21.9688 32.375 22.5 32.375ZM22.5 24.875C23.0312 24.875 23.4766 24.6953 23.8359 24.3359C24.1953 23.9766 24.375 23.5312 24.375 23V15.5C24.375 14.9688 24.1953 14.5234 23.8359 14.1641C23.4766 13.8047 23.0312 13.625 22.5 13.625C21.9688 13.625 21.5234 13.8047 21.1641 14.1641C20.8047 14.5234 20.625 14.9688 20.625 15.5V23C20.625 23.5312 20.8047 23.9766 21.1641 24.3359C21.5234 24.6953 21.9688 24.875 22.5 24.875ZM17.0156 39.875C16.5156 39.875 16.0391 39.7812 15.5859 39.5938C15.1328 39.4062 14.7344 39.1406 14.3906 38.7969L6.70312 31.1094C6.35938 30.7656 6.09375 30.3672 5.90625 29.9141C5.71875 29.4609 5.625 28.9844 5.625 28.4844V17.5156C5.625 17.0156 5.71875 16.5391 5.90625 16.0859C6.09375 15.6328 6.35938 15.2344 6.70312 14.8906L14.3906 7.20312C14.7344 6.85938 15.1328 6.59375 15.5859 6.40625C16.0391 6.21875 16.5156 6.125 17.0156 6.125H27.9844C28.4844 6.125 28.9609 6.21875 29.4141 6.40625C29.8672 6.59375 30.2656 6.85938 30.6094 7.20312L38.2969 14.8906C38.6406 15.2344 38.9062 15.6328 39.0938 16.0859C39.2812 16.5391 39.375 17.0156 39.375 17.5156V28.4844C39.375 28.9844 39.2812 29.4609 39.0938 29.9141C38.9062 30.3672 38.6406 30.7656 38.2969 31.1094L30.6094 38.7969C30.2656 39.1406 29.8672 39.4062 29.4141 39.5938C28.9609 39.7812 28.4844 39.875 27.9844 39.875H17.0156Z" fill="#FF9500"/>
</g>
</svg>
